<svg xmlns="http://www.w3.org/2000/svg" viewBox="0 0 680 300" font-family="Noto Sans CJK SC, sans-serif"><title>密码学的基本场景</title><rect x="30.0" y="60.0" width="100.0" height="56.0" rx="6" fill="#dbeafe" stroke="#1d4ed8" stroke-width="1.2"/><text x="80.0" y="86.0" font-size="15" fill="#111827" text-anchor="middle" font-weight="700">Alice</text><text x="80.0" y="101.5" font-size="11.700000000000001" fill="#6b7280" text-anchor="middle" font-weight="400">发送方</text><rect x="550.0" y="60.0" width="100.0" height="56.0" rx="6" fill="#d1fae5" stroke="#059669" stroke-width="1.2"/><text x="600.0" y="86.0" font-size="15" fill="#111827" text-anchor="middle" font-weight="700">Bob</text><text x="600.0" y="101.5" font-size="11.700000000000001" fill="#6b7280" text-anchor="middle" font-weight="400">接收方</text><rect x="290.0" y="170.0" width="100.0" height="52.0" rx="6" fill="#fee2e2" stroke="#dc2626" stroke-width="1.2"/><text x="340.0" y="194.0" font-size="15" fill="#111827" text-anchor="middle" font-weight="700">Eve</text><text x="340.0" y="209.5" font-size="11.700000000000001" fill="#6b7280" text-anchor="middle" font-weight="400">窃听者</text><rect x="170.0" y="66.0" width="80.0" height="44.0" rx="6" fill="#d97706" stroke="#d97706" stroke-width="1.2"/><text x="210.0" y="92.6" font-size="13" fill="#fff" text-anchor="middle" font-weight="700">加密</text><rect x="430.0" y="66.0" width="80.0" height="44.0" rx="6" fill="#d97706" stroke="#d97706" stroke-width="1.2"/><text x="470.0" y="92.6" font-size="13" fill="#fff" text-anchor="middle" font-weight="700">解密</text><line x1="130.0" y1="88.0" x2="162.4" y2="88.0" stroke="#111827" stroke-width="1.8" stroke-linecap="butt"/><path d="M168.0,88.0 L160.9,91.8 L160.9,84.2 Z" fill="#111827" stroke="none"/><line x1="250.0" y1="88.0" x2="422.4" y2="88.0" stroke="#111827" stroke-width="1.8" stroke-linecap="butt"/><path d="M428.0,88.0 L420.9,91.8 L420.9,84.2 Z" fill="#111827" stroke="none"/><line x1="510.0" y1="88.0" x2="542.4" y2="88.0" stroke="#111827" stroke-width="1.8" stroke-linecap="butt"/><path d="M548.0,88.0 L540.9,91.8 L540.9,84.2 Z" fill="#111827" stroke="none"/><text x="150.0" y="52.0" font-size="11" fill="#6b7280" text-anchor="middle" font-weight="400">明文</text><text x="530.0" y="52.0" font-size="11" fill="#6b7280" text-anchor="middle" font-weight="400">明文</text><text x="340.0" y="78.0" font-size="12" fill="#7c3aed" text-anchor="middle" font-weight="700" font-family="Noto Sans Mono CJK SC,monospace">密文：x7#Qf…</text><line x1="340.0" y1="92.0" x2="340.0" y2="160.4" stroke="#dc2626" stroke-width="1.6" stroke-linecap="butt" stroke-dasharray="4,3"/><path d="M340.0,166.0 L336.2,158.9 L343.8,158.9 Z" fill="#dc2626" stroke="none"/><text x="352.0" y="154.0" font-size="11" fill="#dc2626" text-anchor="start" font-weight="400">截获的只是乱码</text><text x="210.0" y="128.0" font-size="11" fill="#d97706" text-anchor="middle" font-weight="700">密钥</text><text x="470.0" y="128.0" font-size="11" fill="#d97706" text-anchor="middle" font-weight="700">密钥</text><rect x="30.0" y="240.0" width="200.0" height="50.0" rx="8" fill="#dbeafe" stroke="#1d4ed8" stroke-width="1.2"/><text x="130.0" y="260.0" font-size="12" fill="#1d4ed8" text-anchor="middle" font-weight="700">保密性：别人看不懂</text><text x="130.0" y="280.0" font-size="11" fill="#111827" text-anchor="middle" font-weight="400">工具：加密</text><rect x="250.0" y="240.0" width="200.0" height="50.0" rx="8" fill="#ccfbf1" stroke="#0f766e" stroke-width="1.2"/><text x="350.0" y="260.0" font-size="12" fill="#0f766e" text-anchor="middle" font-weight="700">完整性：改动会被发现</text><text x="350.0" y="280.0" font-size="11" fill="#111827" text-anchor="middle" font-weight="400">工具：哈希、MAC</text><rect x="470.0" y="240.0" width="200.0" height="50.0" rx="8" fill="#ede9fe" stroke="#7c3aed" stroke-width="1.2"/><text x="570.0" y="260.0" font-size="12" fill="#7c3aed" text-anchor="middle" font-weight="700">真实性：确认是谁发的</text><text x="570.0" y="280.0" font-size="11" fill="#111827" text-anchor="middle" font-weight="400">工具：数字签名、证书</text></svg>
