<svg xmlns="http://www.w3.org/2000/svg" viewBox="0 0 680 940" font-family="Noto Sans CJK SC, sans-serif"><title>人工智能 知识地图</title><text x="340.0" y="30.0" font-size="21" fill="#111827" text-anchor="middle" font-weight="700">人工智能 · 知识地图</text><text x="340.0" y="52.0" font-size="11.5" fill="#6b7280" text-anchor="middle" font-weight="400">中间自下而上：从“写规则”到“学规律”，再到大模型和它的应用与治理。左边是历史，右边是根原理。</text><rect x="168.0" y="725.0" width="344.0" height="82.0" rx="8" fill="#f1f5f9" stroke="#475569" stroke-width="1.4"/><text x="180.0" y="744.0" font-size="14" fill="#475569" text-anchor="start" font-weight="700">思想源头</text><rect x="180.0" y="752.0" width="54.0" height="19.0" rx="9" fill="#fff" stroke="#475569" stroke-width="0.8"/><text x="207.0" y="765.5" font-size="10.5" fill="#111827" text-anchor="middle" font-weight="400">图灵测试</text><rect x="240.0" y="752.0" width="54.0" height="19.0" rx="9" fill="#fff" stroke="#475569" stroke-width="0.8"/><text x="267.0" y="765.5" font-size="10.5" fill="#111827" text-anchor="middle" font-weight="400">符号主义</text><rect x="300.0" y="752.0" width="54.0" height="19.0" rx="9" fill="#fff" stroke="#475569" stroke-width="0.8"/><text x="327.0" y="765.5" font-size="10.5" fill="#111827" text-anchor="middle" font-weight="400">专家系统</text><rect x="360.0" y="752.0" width="64.5" height="19.0" rx="9" fill="#fff" stroke="#475569" stroke-width="0.8"/><text x="392.2" y="765.5" font-size="10.5" fill="#111827" text-anchor="middle" font-weight="400">搜索与规划</text><rect x="430.5" y="752.0" width="47.9" height="19.0" rx="9" fill="#fff" stroke="#475569" stroke-width="0.8"/><text x="454.5" y="765.5" font-size="10.5" fill="#111827" text-anchor="middle" font-weight="400">AI 寒冬</text><rect x="180.0" y="775.0" width="64.5" height="19.0" rx="9" fill="#fff" stroke="#475569" stroke-width="0.8"/><text x="212.2" y="788.5" font-size="10.5" fill="#111827" text-anchor="middle" font-weight="400">聊天机器人</text><line x1="340.0" y1="727.0" x2="340.0" y2="723.3" stroke="#475569" stroke-width="2.2" stroke-linecap="butt"/><path d="M340.0,717.0 L344.2,724.9 L335.8,724.9 Z" fill="#475569" stroke="none"/><rect x="168.0" y="633.0" width="344.0" height="82.0" rx="8" fill="#d1fae5" stroke="#059669" stroke-width="1.4"/><text x="180.0" y="652.0" font-size="14" fill="#059669" text-anchor="start" font-weight="700">机器学习</text><rect x="180.0" y="660.0" width="129.6" height="19.0" rx="9" fill="#fff" stroke="#059669" stroke-width="0.8"/><text x="244.8" y="673.5" font-size="10.5" fill="#111827" text-anchor="middle" font-weight="400">监督 · 无监督 · 自监督</text><rect x="315.6" y="660.0" width="54.0" height="19.0" rx="9" fill="#fff" stroke="#059669" stroke-width="0.8"/><text x="342.6" y="673.5" font-size="10.5" fill="#111827" text-anchor="middle" font-weight="400">强化学习</text><rect x="375.6" y="660.0" width="64.5" height="19.0" rx="9" fill="#fff" stroke="#059669" stroke-width="0.8"/><text x="407.9" y="673.5" font-size="10.5" fill="#111827" text-anchor="middle" font-weight="400">回归与分类</text><rect x="180.0" y="683.0" width="126.2" height="19.0" rx="9" fill="#fff" stroke="#059669" stroke-width="0.8"/><text x="243.1" y="696.5" font-size="10.5" fill="#111827" text-anchor="middle" font-weight="400">决策树 · SVM · 贝叶斯</text><rect x="312.2" y="683.0" width="43.5" height="19.0" rx="9" fill="#fff" stroke="#059669" stroke-width="0.8"/><text x="334.0" y="696.5" font-size="10.5" fill="#111827" text-anchor="middle" font-weight="400">过拟合</text><rect x="361.7" y="683.0" width="112.8" height="19.0" rx="9" fill="#fff" stroke="#059669" stroke-width="0.8"/><text x="418.1" y="696.5" font-size="10.5" fill="#111827" text-anchor="middle" font-weight="400">损失函数 · 梯度下降</text><line x1="340.0" y1="635.0" x2="340.0" y2="631.3" stroke="#059669" stroke-width="2.2" stroke-linecap="butt"/><path d="M340.0,625.0 L344.2,632.9 L335.8,632.9 Z" fill="#059669" stroke="none"/><rect x="168.0" y="518.0" width="344.0" height="105.0" rx="8" fill="#dbeafe" stroke="#1d4ed8" stroke-width="1.4"/><text x="180.0" y="537.0" font-size="14" fill="#1d4ed8" text-anchor="start" font-weight="700">神经网络与深度学习</text><rect x="180.0" y="545.0" width="43.5" height="19.0" rx="9" fill="#fff" stroke="#1d4ed8" stroke-width="0.8"/><text x="201.8" y="558.5" font-size="10.5" fill="#111827" text-anchor="middle" font-weight="400">感知机</text><rect x="229.5" y="545.0" width="54.0" height="19.0" rx="9" fill="#fff" stroke="#1d4ed8" stroke-width="0.8"/><text x="256.5" y="558.5" font-size="10.5" fill="#111827" text-anchor="middle" font-weight="400">反向传播</text><rect x="289.5" y="545.0" width="29.6" height="19.0" rx="9" fill="#fff" stroke="#1d4ed8" stroke-width="0.8"/><text x="304.3" y="558.5" font-size="10.5" fill="#111827" text-anchor="middle" font-weight="400">CNN</text><rect x="325.1" y="545.0" width="70.0" height="19.0" rx="9" fill="#fff" stroke="#1d4ed8" stroke-width="0.8"/><text x="360.1" y="558.5" font-size="10.5" fill="#111827" text-anchor="middle" font-weight="400">RNN · LSTM</text><rect x="401.1" y="545.0" width="47.3" height="19.0" rx="9" fill="#fff" stroke="#1d4ed8" stroke-width="0.8"/><text x="424.7" y="558.5" font-size="10.5" fill="#111827" text-anchor="middle" font-weight="400">ResNet</text><rect x="180.0" y="568.0" width="59.0" height="19.0" rx="9" fill="#fff" stroke="#1d4ed8" stroke-width="0.8"/><text x="209.5" y="581.5" font-size="10.5" fill="#111827" text-anchor="middle" font-weight="400">ImageNet</text><rect x="245.0" y="568.0" width="43.5" height="19.0" rx="9" fill="#fff" stroke="#1d4ed8" stroke-width="0.8"/><text x="266.8" y="581.5" font-size="10.5" fill="#111827" text-anchor="middle" font-weight="400">词向量</text><rect x="294.5" y="568.0" width="43.5" height="19.0" rx="9" fill="#fff" stroke="#1d4ed8" stroke-width="0.8"/><text x="316.3" y="581.5" font-size="10.5" fill="#111827" text-anchor="middle" font-weight="400">注意力</text><rect x="344.0" y="568.0" width="76.7" height="19.0" rx="9" fill="#fff" stroke="#1d4ed8" stroke-width="0.8"/><text x="382.4" y="581.5" font-size="10.5" fill="#111827" text-anchor="middle" font-weight="400">Transformer</text><rect x="180.0" y="591.0" width="88.4" height="19.0" rx="9" fill="#fff" stroke="#1d4ed8" stroke-width="0.8"/><text x="224.2" y="604.5" font-size="10.5" fill="#111827" text-anchor="middle" font-weight="400">GAN · 扩散模型</text><line x1="340.0" y1="520.0" x2="340.0" y2="516.3" stroke="#1d4ed8" stroke-width="2.2" stroke-linecap="butt"/><path d="M340.0,510.0 L344.2,517.9 L335.8,517.9 Z" fill="#1d4ed8" stroke="none"/><rect x="168.0" y="449.0" width="344.0" height="59.0" rx="8" fill="#ccfbf1" stroke="#0f766e" stroke-width="1.4"/><text x="180.0" y="468.0" font-size="14" fill="#0f766e" text-anchor="start" font-weight="700">算力与数据</text><rect x="180.0" y="476.0" width="116.8" height="19.0" rx="9" fill="#fff" stroke="#0f766e" stroke-width="0.8"/><text x="238.4" y="489.5" font-size="10.5" fill="#111827" text-anchor="middle" font-weight="400">GPU · TPU · AI 芯片</text><rect x="302.8" y="476.0" width="54.0" height="19.0" rx="9" fill="#fff" stroke="#0f766e" stroke-width="0.8"/><text x="329.8" y="489.5" font-size="10.5" fill="#111827" text-anchor="middle" font-weight="400">数据标注</text><rect x="362.8" y="476.0" width="54.0" height="19.0" rx="9" fill="#fff" stroke="#0f766e" stroke-width="0.8"/><text x="389.8" y="489.5" font-size="10.5" fill="#111827" text-anchor="middle" font-weight="400">评测基准</text><rect x="422.8" y="476.0" width="54.0" height="19.0" rx="9" fill="#fff" stroke="#0f766e" stroke-width="0.8"/><text x="449.8" y="489.5" font-size="10.5" fill="#111827" text-anchor="middle" font-weight="400">联邦学习</text><line x1="340.0" y1="451.0" x2="340.0" y2="447.3" stroke="#0f766e" stroke-width="2.2" stroke-linecap="butt"/><path d="M340.0,441.0 L344.2,448.9 L335.8,448.9 Z" fill="#0f766e" stroke="none"/><rect x="168.0" y="334.0" width="344.0" height="105.0" rx="8" fill="#ede9fe" stroke="#7c3aed" stroke-width="1.4"/><text x="180.0" y="353.0" font-size="14" fill="#7c3aed" text-anchor="start" font-weight="700">大模型时代</text><rect x="180.0" y="361.0" width="87.6" height="19.0" rx="9" fill="#fff" stroke="#7c3aed" stroke-width="0.8"/><text x="223.8" y="374.5" font-size="10.5" fill="#111827" text-anchor="middle" font-weight="400">GPT · ChatGPT</text><rect x="273.6" y="361.0" width="54.0" height="19.0" rx="9" fill="#fff" stroke="#7c3aed" stroke-width="0.8"/><text x="300.6" y="374.5" font-size="10.5" fill="#111827" text-anchor="middle" font-weight="400">缩放定律</text><rect x="333.6" y="361.0" width="75.0" height="19.0" rx="9" fill="#fff" stroke="#7c3aed" stroke-width="0.8"/><text x="371.1" y="374.5" font-size="10.5" fill="#111827" text-anchor="middle" font-weight="400">预训练与微调</text><rect x="180.0" y="384.0" width="89.7" height="19.0" rx="9" fill="#fff" stroke="#7c3aed" stroke-width="0.8"/><text x="224.8" y="397.5" font-size="10.5" fill="#111827" text-anchor="middle" font-weight="400">Token · 上下文</text><rect x="275.7" y="384.0" width="35.5" height="19.0" rx="9" fill="#fff" stroke="#7c3aed" stroke-width="0.8"/><text x="293.5" y="397.5" font-size="10.5" fill="#111827" text-anchor="middle" font-weight="400">RLHF</text><rect x="317.2" y="384.0" width="54.0" height="19.0" rx="9" fill="#fff" stroke="#7c3aed" stroke-width="0.8"/><text x="344.2" y="397.5" font-size="10.5" fill="#111827" text-anchor="middle" font-weight="400">推理模型</text><rect x="377.2" y="384.0" width="29.6" height="19.0" rx="9" fill="#fff" stroke="#7c3aed" stroke-width="0.8"/><text x="392.0" y="397.5" font-size="10.5" fill="#111827" text-anchor="middle" font-weight="400">RAG</text><rect x="412.9" y="384.0" width="43.5" height="19.0" rx="9" fill="#fff" stroke="#7c3aed" stroke-width="0.8"/><text x="434.6" y="397.5" font-size="10.5" fill="#111827" text-anchor="middle" font-weight="400">智能体</text><rect x="180.0" y="407.0" width="77.9" height="19.0" rx="9" fill="#fff" stroke="#7c3aed" stroke-width="0.8"/><text x="219.0" y="420.5" font-size="10.5" fill="#111827" text-anchor="middle" font-weight="400">多模态 · MoE</text><rect x="263.9" y="407.0" width="54.0" height="19.0" rx="9" fill="#fff" stroke="#7c3aed" stroke-width="0.8"/><text x="290.9" y="420.5" font-size="10.5" fill="#111827" text-anchor="middle" font-weight="400">开放权重</text><rect x="323.9" y="407.0" width="33.0" height="19.0" rx="9" fill="#fff" stroke="#7c3aed" stroke-width="0.8"/><text x="340.4" y="420.5" font-size="10.5" fill="#111827" text-anchor="middle" font-weight="400">幻觉</text><line x1="340.0" y1="336.0" x2="340.0" y2="332.3" stroke="#7c3aed" stroke-width="2.2" stroke-linecap="butt"/><path d="M340.0,326.0 L344.2,333.9 L335.8,333.9 Z" fill="#7c3aed" stroke="none"/><rect x="168.0" y="242.0" width="344.0" height="82.0" rx="8" fill="#fef3c7" stroke="#d97706" stroke-width="1.4"/><text x="180.0" y="261.0" font-size="14" fill="#d97706" text-anchor="start" font-weight="700">感知与语言</text><rect x="180.0" y="269.0" width="64.5" height="19.0" rx="9" fill="#fff" stroke="#d97706" stroke-width="0.8"/><text x="212.2" y="282.5" font-size="10.5" fill="#111827" text-anchor="middle" font-weight="400">计算机视觉</text><rect x="250.5" y="269.0" width="54.0" height="19.0" rx="9" fill="#fff" stroke="#d97706" stroke-width="0.8"/><text x="277.5" y="282.5" font-size="10.5" fill="#111827" text-anchor="middle" font-weight="400">人脸识别</text><rect x="310.5" y="269.0" width="29.6" height="19.0" rx="9" fill="#fff" stroke="#d97706" stroke-width="0.8"/><text x="325.3" y="282.5" font-size="10.5" fill="#111827" text-anchor="middle" font-weight="400">OCR</text><rect x="346.1" y="269.0" width="75.0" height="19.0" rx="9" fill="#fff" stroke="#d97706" stroke-width="0.8"/><text x="383.6" y="282.5" font-size="10.5" fill="#111827" text-anchor="middle" font-weight="400">自然语言处理</text><rect x="427.1" y="269.0" width="54.0" height="19.0" rx="9" fill="#fff" stroke="#d97706" stroke-width="0.8"/><text x="454.1" y="282.5" font-size="10.5" fill="#111827" text-anchor="middle" font-weight="400">机器翻译</text><rect x="180.0" y="292.0" width="91.8" height="19.0" rx="9" fill="#fff" stroke="#d97706" stroke-width="0.8"/><text x="225.9" y="305.5" font-size="10.5" fill="#111827" text-anchor="middle" font-weight="400">语音识别 · 合成</text><rect x="277.8" y="292.0" width="54.0" height="19.0" rx="9" fill="#fff" stroke="#d97706" stroke-width="0.8"/><text x="304.8" y="305.5" font-size="10.5" fill="#111827" text-anchor="middle" font-weight="400">推荐系统</text><rect x="337.8" y="292.0" width="54.0" height="19.0" rx="9" fill="#fff" stroke="#d97706" stroke-width="0.8"/><text x="364.8" y="305.5" font-size="10.5" fill="#111827" text-anchor="middle" font-weight="400">知识图谱</text><line x1="340.0" y1="244.0" x2="340.0" y2="240.3" stroke="#d97706" stroke-width="2.2" stroke-linecap="butt"/><path d="M340.0,234.0 L344.2,241.9 L335.8,241.9 Z" fill="#d97706" stroke="none"/><rect x="168.0" y="150.0" width="344.0" height="82.0" rx="8" fill="#fce7f3" stroke="#db2777" stroke-width="1.4"/><text x="180.0" y="169.0" font-size="14" fill="#db2777" text-anchor="start" font-weight="700">里程碑与应用</text><rect x="180.0" y="177.0" width="33.0" height="19.0" rx="9" fill="#fff" stroke="#db2777" stroke-width="0.8"/><text x="196.5" y="190.5" font-size="10.5" fill="#111827" text-anchor="middle" font-weight="400">深蓝</text><rect x="219.0" y="177.0" width="53.2" height="19.0" rx="9" fill="#fff" stroke="#db2777" stroke-width="0.8"/><text x="245.6" y="190.5" font-size="10.5" fill="#111827" text-anchor="middle" font-weight="400">AlphaGo</text><rect x="278.2" y="177.0" width="88.9" height="19.0" rx="9" fill="#fff" stroke="#db2777" stroke-width="0.8"/><text x="322.6" y="190.5" font-size="10.5" fill="#111827" text-anchor="middle" font-weight="400">AI for Science</text><rect x="373.0" y="177.0" width="47.9" height="19.0" rx="9" fill="#fff" stroke="#db2777" stroke-width="0.8"/><text x="397.0" y="190.5" font-size="10.5" fill="#111827" text-anchor="middle" font-weight="400">AI 编程</text><rect x="426.9" y="177.0" width="54.0" height="19.0" rx="9" fill="#fff" stroke="#db2777" stroke-width="0.8"/><text x="453.9" y="190.5" font-size="10.5" fill="#111827" text-anchor="middle" font-weight="400">具身智能</text><rect x="180.0" y="200.0" width="47.9" height="19.0" rx="9" fill="#fff" stroke="#db2777" stroke-width="0.8"/><text x="204.0" y="213.5" font-size="10.5" fill="#111827" text-anchor="middle" font-weight="400">医疗 AI</text><rect x="233.9" y="200.0" width="54.0" height="19.0" rx="9" fill="#fff" stroke="#db2777" stroke-width="0.8"/><text x="260.9" y="213.5" font-size="10.5" fill="#111827" text-anchor="middle" font-weight="400">深度伪造</text><line x1="340.0" y1="152.0" x2="340.0" y2="148.3" stroke="#db2777" stroke-width="2.2" stroke-linecap="butt"/><path d="M340.0,142.0 L344.2,149.9 L335.8,149.9 Z" fill="#db2777" stroke="none"/><rect x="168.0" y="81.0" width="344.0" height="59.0" rx="8" fill="#fee2e2" stroke="#dc2626" stroke-width="1.4"/><text x="180.0" y="100.0" font-size="14" fill="#dc2626" text-anchor="start" font-weight="700">安全与治理</text><rect x="180.0" y="108.0" width="33.0" height="19.0" rx="9" fill="#fff" stroke="#dc2626" stroke-width="0.8"/><text x="196.5" y="121.5" font-size="10.5" fill="#111827" text-anchor="middle" font-weight="400">对齐</text><rect x="219.0" y="108.0" width="64.5" height="19.0" rx="9" fill="#fff" stroke="#dc2626" stroke-width="0.8"/><text x="251.2" y="121.5" font-size="10.5" fill="#111827" text-anchor="middle" font-weight="400">偏见与公平</text><rect x="289.5" y="108.0" width="54.0" height="19.0" rx="9" fill="#fff" stroke="#dc2626" stroke-width="0.8"/><text x="316.5" y="121.5" font-size="10.5" fill="#111827" text-anchor="middle" font-weight="400">可解释性</text><rect x="349.5" y="108.0" width="33.0" height="19.0" rx="9" fill="#fff" stroke="#dc2626" stroke-width="0.8"/><text x="366.0" y="121.5" font-size="10.5" fill="#111827" text-anchor="middle" font-weight="400">隐私</text><rect x="388.5" y="108.0" width="47.9" height="19.0" rx="9" fill="#fff" stroke="#dc2626" stroke-width="0.8"/><text x="412.5" y="121.5" font-size="10.5" fill="#111827" text-anchor="middle" font-weight="400">AI 监管</text><rect x="442.4" y="108.0" width="53.8" height="19.0" rx="9" fill="#fff" stroke="#dc2626" stroke-width="0.8"/><text x="469.3" y="121.5" font-size="10.5" fill="#111827" text-anchor="middle" font-weight="400">AGI 之争</text><text x="340.0" y="832.0" font-size="11.5" fill="#1d4ed8" text-anchor="middle" font-weight="700">↑ 方法越来越通用，规模越来越大，影响越来越广</text><text x="80.0" y="90.0" font-size="14" fill="#475569" text-anchor="middle" font-weight="700">七十年起落</text><line x1="24.0" y1="106.0" x2="24.0" y2="810.0" stroke="#475569" stroke-width="2" stroke-linecap="round"/><circle cx="24.0" cy="112.0" r="4.5" fill="#475569" stroke="#fff" stroke-width="1"/><text x="33.0" y="116.0" font-size="10" fill="#6b7280" text-anchor="start" font-weight="700">1950</text><text x="70.0" y="116.0" font-size="10.5" fill="#111827" text-anchor="start" font-weight="400">图灵测试</text><circle cx="24.0" cy="158.1" r="4.5" fill="#475569" stroke="#fff" stroke-width="1"/><text x="33.0" y="162.1" font-size="10" fill="#6b7280" text-anchor="start" font-weight="700">1956</text><text x="70.0" y="162.1" font-size="10.5" fill="#111827" text-anchor="start" font-weight="400">达特茅斯会议</text><circle cx="24.0" cy="204.3" r="4.5" fill="#475569" stroke="#fff" stroke-width="1"/><text x="33.0" y="208.3" font-size="10" fill="#6b7280" text-anchor="start" font-weight="700">1958</text><text x="70.0" y="208.3" font-size="10.5" fill="#111827" text-anchor="start" font-weight="400">感知机</text><circle cx="24.0" cy="250.4" r="4.5" fill="#475569" stroke="#fff" stroke-width="1"/><text x="33.0" y="254.4" font-size="10" fill="#6b7280" text-anchor="start" font-weight="700">1966</text><text x="70.0" y="254.4" font-size="10.5" fill="#111827" text-anchor="start" font-weight="400">ELIZA</text><circle cx="24.0" cy="296.5" r="4.5" fill="#dc2626" stroke="#fff" stroke-width="1"/><text x="33.0" y="300.5" font-size="10" fill="#6b7280" text-anchor="start" font-weight="700">1974</text><text x="70.0" y="300.5" font-size="10.5" fill="#dc2626" text-anchor="start" font-weight="400">第一次寒冬</text><circle cx="24.0" cy="342.7" r="4.5" fill="#475569" stroke="#fff" stroke-width="1"/><text x="33.0" y="346.7" font-size="10" fill="#6b7280" text-anchor="start" font-weight="700">1980s</text><text x="70.0" y="346.7" font-size="10.5" fill="#111827" text-anchor="start" font-weight="400">专家系统热</text><circle cx="24.0" cy="388.8" r="4.5" fill="#475569" stroke="#fff" stroke-width="1"/><text x="33.0" y="392.8" font-size="10" fill="#6b7280" text-anchor="start" font-weight="700">1986</text><text x="70.0" y="392.8" font-size="10.5" fill="#111827" text-anchor="start" font-weight="400">反向传播</text><circle cx="24.0" cy="434.9" r="4.5" fill="#475569" stroke="#fff" stroke-width="1"/><text x="33.0" y="438.9" font-size="10" fill="#6b7280" text-anchor="start" font-weight="700">1997</text><text x="70.0" y="438.9" font-size="10.5" fill="#111827" text-anchor="start" font-weight="400">深蓝胜卡斯帕罗夫</text><circle cx="24.0" cy="481.1" r="4.5" fill="#475569" stroke="#fff" stroke-width="1"/><text x="33.0" y="485.1" font-size="10" fill="#6b7280" text-anchor="start" font-weight="700">2012</text><text x="70.0" y="485.1" font-size="10.5" fill="#111827" text-anchor="start" font-weight="400">AlexNet</text><circle cx="24.0" cy="527.2" r="4.5" fill="#475569" stroke="#fff" stroke-width="1"/><text x="33.0" y="531.2" font-size="10" fill="#6b7280" text-anchor="start" font-weight="700">2016</text><text x="70.0" y="531.2" font-size="10.5" fill="#111827" text-anchor="start" font-weight="400">AlphaGo</text><circle cx="24.0" cy="573.3" r="4.5" fill="#475569" stroke="#fff" stroke-width="1"/><text x="33.0" y="577.3" font-size="10" fill="#6b7280" text-anchor="start" font-weight="700">2017</text><text x="70.0" y="577.3" font-size="10.5" fill="#111827" text-anchor="start" font-weight="400">Transformer</text><circle cx="24.0" cy="619.5" r="4.5" fill="#475569" stroke="#fff" stroke-width="1"/><text x="33.0" y="623.5" font-size="10" fill="#6b7280" text-anchor="start" font-weight="700">2020</text><text x="70.0" y="623.5" font-size="10.5" fill="#111827" text-anchor="start" font-weight="400">GPT-3</text><circle cx="24.0" cy="665.6" r="4.5" fill="#475569" stroke="#fff" stroke-width="1"/><text x="33.0" y="669.6" font-size="10" fill="#6b7280" text-anchor="start" font-weight="700">2022</text><text x="70.0" y="669.6" font-size="10.5" fill="#111827" text-anchor="start" font-weight="400">ChatGPT</text><circle cx="24.0" cy="711.7" r="4.5" fill="#475569" stroke="#fff" stroke-width="1"/><text x="33.0" y="715.7" font-size="10" fill="#6b7280" text-anchor="start" font-weight="700">2024</text><text x="70.0" y="715.7" font-size="10.5" fill="#111827" text-anchor="start" font-weight="400">推理模型 · 诺奖</text><circle cx="24.0" cy="757.9" r="4.5" fill="#475569" stroke="#fff" stroke-width="1"/><text x="33.0" y="761.9" font-size="10" fill="#6b7280" text-anchor="start" font-weight="700">2025</text><text x="70.0" y="761.9" font-size="10.5" fill="#111827" text-anchor="start" font-weight="400">智能体 · 开放权重</text><circle cx="24.0" cy="804.0" r="4.5" fill="#475569" stroke="#fff" stroke-width="1"/><text x="33.0" y="808.0" font-size="10" fill="#6b7280" text-anchor="start" font-weight="700">2026</text><text x="70.0" y="808.0" font-size="10.5" fill="#111827" text-anchor="start" font-weight="400">GPT-6 等新一代</text><rect x="522.0" y="84.0" width="150.0" height="95.0" rx="8" fill="#d1fae5" stroke="#059669" stroke-width="1.2"/><text x="597.0" y="105.0" font-size="13" fill="#059669" text-anchor="middle" font-weight="700">怎么学（根原理）</text><text x="532.0" y="126.0" font-size="11" fill="#111827" text-anchor="start" font-weight="400">· 优化：梯度下降</text><text x="532.0" y="147.0" font-size="11" fill="#111827" text-anchor="start" font-weight="400">· 概率与统计推断</text><text x="532.0" y="168.0" font-size="11" fill="#111827" text-anchor="start" font-weight="400">· 信息：压缩即理解</text><rect x="522.0" y="193.0" width="150.0" height="95.0" rx="8" fill="#ede9fe" stroke="#7c3aed" stroke-width="1.2"/><text x="597.0" y="214.0" font-size="13" fill="#7c3aed" text-anchor="middle" font-weight="700">为什么变强</text><text x="532.0" y="235.0" font-size="11" fill="#111827" text-anchor="start" font-weight="400">· 规模效应</text><text x="532.0" y="256.0" font-size="11" fill="#111827" text-anchor="start" font-weight="400">· 指数增长的算力</text><text x="532.0" y="277.0" font-size="11" fill="#111827" text-anchor="start" font-weight="400">· 缩放定律</text><rect x="522.0" y="302.0" width="150.0" height="95.0" rx="8" fill="#fee2e2" stroke="#dc2626" stroke-width="1.2"/><text x="597.0" y="323.0" font-size="13" fill="#dc2626" text-anchor="middle" font-weight="700">为什么要管</text><text x="532.0" y="344.0" font-size="11" fill="#111827" text-anchor="start" font-weight="400">· 激励与博弈</text><text x="532.0" y="365.0" font-size="11" fill="#111827" text-anchor="start" font-weight="400">· 反馈与控制</text><text x="532.0" y="386.0" font-size="11" fill="#111827" text-anchor="start" font-weight="400">· 冗余与安全</text><rect x="522.0" y="411.0" width="150.0" height="116.0" rx="8" fill="#f1f5f9" stroke="#475569" stroke-width="1.2"/><text x="597.0" y="432.0" font-size="13" fill="#475569" text-anchor="middle" font-weight="700">四个核心问题</text><text x="532.0" y="453.0" font-size="11" fill="#111827" text-anchor="start" font-weight="400">· 数据从哪来？</text><text x="532.0" y="474.0" font-size="11" fill="#111827" text-anchor="start" font-weight="400">· 目标怎么定？</text><text x="532.0" y="495.0" font-size="11" fill="#111827" text-anchor="start" font-weight="400">· 会不会出错？</text><text x="532.0" y="516.0" font-size="11" fill="#111827" text-anchor="start" font-weight="400">· 谁来负责？</text><rect x="10.0" y="862.0" width="660.0" height="66.0" rx="8" fill="#f9fafb" stroke="#d1d5db" stroke-width="1.2"/><text x="340.0" y="884.0" font-size="12.5" fill="#111827" text-anchor="middle" font-weight="700">和其他篇的接口</text><text x="340.0" y="905.0" font-size="11" fill="#6b7280" text-anchor="middle" font-weight="400">GPU 与数据中心 → 第 3 篇「计算与软件」　芯片制造 → 第 2 篇「电与电子」　搜索与推荐平台 → 第 4 篇</text><text x="340.0" y="922.0" font-size="11" fill="#6b7280" text-anchor="middle" font-weight="400">机器人本体与工厂自动化 → 第 7 篇「制造与自动化」　AI 制药 → 医学篇</text></svg>
