<svg xmlns="http://www.w3.org/2000/svg" viewBox="0 0 680 584" font-family="Noto Sans CJK SC, sans-serif"><title>全书地图</title><text x="340.0" y="28.0" font-size="19" fill="#111827" text-anchor="middle" font-weight="700">17 个领域 · 5 大板块</text><text x="340.0" y="50.0" font-size="11.5" fill="#6b7280" text-anchor="middle" font-weight="400">方块左上角是篇号，右上角是该领域的词条数</text><rect x="20.0" y="70.0" width="640.0" height="120.0" rx="10" fill="#fef3c7" stroke="#d97706" stroke-width="1.4"/><text x="32.0" y="92.0" font-size="13" fill="#d97706" text-anchor="start" font-weight="700">能量与物质：让东西动起来、造出来</text><rect x="32.0" y="102.0" width="116.8" height="76.0" rx="7" fill="#fff" stroke="#d97706" stroke-width="1"/><text x="40.0" y="119.0" font-size="11" fill="#d97706" text-anchor="start" font-weight="700">01</text><text x="140.8" y="119.0" font-size="12" fill="#d97706" text-anchor="end" font-weight="700">67</text><text x="90.4" y="150.0" font-size="13" fill="#111827" text-anchor="middle" font-weight="700">能源与动力</text><rect x="156.8" y="102.0" width="116.8" height="76.0" rx="7" fill="#fff" stroke="#d97706" stroke-width="1"/><text x="164.8" y="119.0" font-size="11" fill="#d97706" text-anchor="start" font-weight="700">06</text><text x="265.6" y="119.0" font-size="12" fill="#d97706" text-anchor="end" font-weight="700">54</text><text x="215.2" y="150.0" font-size="13" fill="#111827" text-anchor="middle" font-weight="700">材料与化工</text><rect x="281.6" y="102.0" width="116.8" height="76.0" rx="7" fill="#fff" stroke="#d97706" stroke-width="1"/><text x="289.6" y="119.0" font-size="11" fill="#d97706" text-anchor="start" font-weight="700">07</text><text x="390.4" y="119.0" font-size="12" fill="#d97706" text-anchor="end" font-weight="700">45</text><text x="340.0" y="150.0" font-size="13" fill="#111827" text-anchor="middle" font-weight="700">制造与自动化</text><rect x="406.4" y="102.0" width="116.8" height="76.0" rx="7" fill="#fff" stroke="#d97706" stroke-width="1"/><text x="414.4" y="119.0" font-size="11" fill="#d97706" text-anchor="start" font-weight="700">12</text><text x="515.2" y="119.0" font-size="12" fill="#d97706" text-anchor="end" font-weight="700">25</text><text x="464.8" y="150.0" font-size="13" fill="#111827" text-anchor="middle" font-weight="700">建筑与城市</text><rect x="531.2" y="102.0" width="116.8" height="76.0" rx="7" fill="#fff" stroke="#d97706" stroke-width="1"/><text x="539.2" y="119.0" font-size="11" fill="#d97706" text-anchor="start" font-weight="700">15</text><text x="640.0" y="119.0" font-size="12" fill="#d97706" text-anchor="end" font-weight="700">26</text><text x="589.6" y="150.0" font-size="13" fill="#111827" text-anchor="middle" font-weight="700">环境与气候技术</text><rect x="20.0" y="206.0" width="640.0" height="120.0" rx="10" fill="#dbeafe" stroke="#1d4ed8" stroke-width="1.4"/><text x="32.0" y="228.0" font-size="13" fill="#1d4ed8" text-anchor="start" font-weight="700">信息：把世界变成比特</text><rect x="32.0" y="238.0" width="96.0" height="76.0" rx="7" fill="#fff" stroke="#1d4ed8" stroke-width="1"/><text x="40.0" y="255.0" font-size="11" fill="#1d4ed8" text-anchor="start" font-weight="700">02</text><text x="120.0" y="255.0" font-size="12" fill="#1d4ed8" text-anchor="end" font-weight="700">78</text><text x="80.0" y="286.0" font-size="13" fill="#111827" text-anchor="middle" font-weight="700">电与电子</text><rect x="136.0" y="238.0" width="96.0" height="76.0" rx="7" fill="#fff" stroke="#1d4ed8" stroke-width="1"/><text x="144.0" y="255.0" font-size="11" fill="#1d4ed8" text-anchor="start" font-weight="700">03</text><text x="224.0" y="255.0" font-size="12" fill="#1d4ed8" text-anchor="end" font-weight="700">124</text><text x="184.0" y="286.0" font-size="13" fill="#111827" text-anchor="middle" font-weight="700">计算与软件</text><rect x="240.0" y="238.0" width="96.0" height="76.0" rx="7" fill="#fff" stroke="#1d4ed8" stroke-width="1"/><text x="248.0" y="255.0" font-size="11" fill="#1d4ed8" text-anchor="start" font-weight="700">04</text><text x="328.0" y="255.0" font-size="12" fill="#1d4ed8" text-anchor="end" font-weight="700">81</text><text x="288.0" y="286.0" font-size="13" fill="#111827" text-anchor="middle" font-weight="700">互联网与通信</text><rect x="344.0" y="238.0" width="96.0" height="76.0" rx="7" fill="#fff" stroke="#1d4ed8" stroke-width="1"/><text x="352.0" y="255.0" font-size="11" fill="#1d4ed8" text-anchor="start" font-weight="700">05</text><text x="432.0" y="255.0" font-size="12" fill="#1d4ed8" text-anchor="end" font-weight="700">81</text><text x="392.0" y="286.0" font-size="13" fill="#111827" text-anchor="middle" font-weight="700">人工智能</text><rect x="448.0" y="238.0" width="96.0" height="76.0" rx="7" fill="#fff" stroke="#1d4ed8" stroke-width="1"/><text x="456.0" y="255.0" font-size="11" fill="#1d4ed8" text-anchor="start" font-weight="700">16</text><text x="536.0" y="255.0" font-size="12" fill="#1d4ed8" text-anchor="end" font-weight="700">47</text><text x="496.0" y="282.0" font-size="11.5" fill="#111827" text-anchor="middle" font-weight="700">光学、</text><text x="496.0" y="296.4" font-size="11.5" fill="#111827" text-anchor="middle" font-weight="700">成像与媒体</text><rect x="552.0" y="238.0" width="96.0" height="76.0" rx="7" fill="#fff" stroke="#1d4ed8" stroke-width="1"/><text x="560.0" y="255.0" font-size="11" fill="#1d4ed8" text-anchor="start" font-weight="700">17</text><text x="640.0" y="255.0" font-size="12" fill="#1d4ed8" text-anchor="end" font-weight="700">22</text><text x="600.0" y="286.0" font-size="13" fill="#111827" text-anchor="middle" font-weight="700">量子与前沿</text><rect x="20.0" y="342.0" width="300.0" height="120.0" rx="10" fill="#ccfbf1" stroke="#0f766e" stroke-width="1.4"/><text x="32.0" y="364.0" font-size="13" fill="#0f766e" text-anchor="start" font-weight="700">移动：把人和货送到远方</text><rect x="32.0" y="374.0" width="134.0" height="76.0" rx="7" fill="#fff" stroke="#0f766e" stroke-width="1"/><text x="40.0" y="391.0" font-size="11" fill="#0f766e" text-anchor="start" font-weight="700">08</text><text x="158.0" y="391.0" font-size="12" fill="#0f766e" text-anchor="end" font-weight="700">51</text><text x="99.0" y="422.0" font-size="13" fill="#111827" text-anchor="middle" font-weight="700">交通运输</text><rect x="174.0" y="374.0" width="134.0" height="76.0" rx="7" fill="#fff" stroke="#0f766e" stroke-width="1"/><text x="182.0" y="391.0" font-size="11" fill="#0f766e" text-anchor="start" font-weight="700">09</text><text x="300.0" y="391.0" font-size="12" fill="#0f766e" text-anchor="end" font-weight="700">39</text><text x="241.0" y="422.0" font-size="13" fill="#111827" text-anchor="middle" font-weight="700">航天与空间</text><rect x="360.0" y="342.0" width="300.0" height="120.0" rx="10" fill="#d1fae5" stroke="#059669" stroke-width="1.4"/><text x="372.0" y="364.0" font-size="13" fill="#059669" text-anchor="start" font-weight="700">生命：吃饱、治病、长寿</text><rect x="372.0" y="374.0" width="134.0" height="76.0" rx="7" fill="#fff" stroke="#059669" stroke-width="1"/><text x="380.0" y="391.0" font-size="11" fill="#059669" text-anchor="start" font-weight="700">10</text><text x="498.0" y="391.0" font-size="12" fill="#059669" text-anchor="end" font-weight="700">89</text><text x="439.0" y="422.0" font-size="13" fill="#111827" text-anchor="middle" font-weight="700">生物与医学</text><rect x="514.0" y="374.0" width="134.0" height="76.0" rx="7" fill="#fff" stroke="#059669" stroke-width="1"/><text x="522.0" y="391.0" font-size="11" fill="#059669" text-anchor="start" font-weight="700">11</text><text x="640.0" y="391.0" font-size="12" fill="#059669" text-anchor="end" font-weight="700">31</text><text x="581.0" y="422.0" font-size="13" fill="#111827" text-anchor="middle" font-weight="700">农业与食品</text><rect x="20.0" y="478.0" width="640.0" height="96.0" rx="10" fill="#f1f5f9" stroke="#475569" stroke-width="1.4"/><text x="32.0" y="500.0" font-size="13" fill="#475569" text-anchor="start" font-weight="700">社会：安全与金钱</text><rect x="32.0" y="510.0" width="304.0" height="52.0" rx="7" fill="#fff" stroke="#475569" stroke-width="1"/><text x="40.0" y="527.0" font-size="11" fill="#475569" text-anchor="start" font-weight="700">13</text><text x="328.0" y="527.0" font-size="12" fill="#475569" text-anchor="end" font-weight="700">46</text><text x="184.0" y="546.0" font-size="13" fill="#111827" text-anchor="middle" font-weight="700">安全与国防</text><rect x="344.0" y="510.0" width="304.0" height="52.0" rx="7" fill="#fff" stroke="#475569" stroke-width="1"/><text x="352.0" y="527.0" font-size="11" fill="#475569" text-anchor="start" font-weight="700">14</text><text x="640.0" y="527.0" font-size="12" fill="#475569" text-anchor="end" font-weight="700">28</text><text x="496.0" y="546.0" font-size="13" fill="#111827" text-anchor="middle" font-weight="700">金融与商业科技</text><text x="660.0" y="28.0" font-size="12" fill="#1d4ed8" text-anchor="end" font-weight="700">共 934 个词条</text></svg>
