<svg xmlns="http://www.w3.org/2000/svg" viewBox="0 0 520 222" font-family="Noto Sans CJK SC, sans-serif"><title>冷链温度带</title><rect x="14.0" y="26.0" width="88.0" height="40.0" rx="6" fill="#dbeafe" stroke="#1d4ed8" stroke-width="1.2"/><text x="58.0" y="50.3" font-size="12" fill="#111827" text-anchor="middle" font-weight="700">产地预冷</text><line x1="103.0" y1="46.0" x2="108.8" y2="46.0" stroke="#1d4ed8" stroke-width="1.4" stroke-linecap="butt"/><path d="M113.0,46.0 L107.7,48.8 L107.7,43.2 Z" fill="#1d4ed8" stroke="none"/><rect x="114.0" y="26.0" width="88.0" height="40.0" rx="6" fill="#dbeafe" stroke="#1d4ed8" stroke-width="1.2"/><text x="158.0" y="50.3" font-size="12" fill="#111827" text-anchor="middle" font-weight="700">冷库</text><line x1="203.0" y1="46.0" x2="208.8" y2="46.0" stroke="#1d4ed8" stroke-width="1.4" stroke-linecap="butt"/><path d="M213.0,46.0 L207.7,48.8 L207.7,43.2 Z" fill="#1d4ed8" stroke="none"/><rect x="214.0" y="26.0" width="88.0" height="40.0" rx="6" fill="#dbeafe" stroke="#1d4ed8" stroke-width="1.2"/><text x="258.0" y="50.3" font-size="12" fill="#111827" text-anchor="middle" font-weight="700">冷藏运输</text><line x1="303.0" y1="46.0" x2="308.8" y2="46.0" stroke="#1d4ed8" stroke-width="1.4" stroke-linecap="butt"/><path d="M313.0,46.0 L307.7,48.8 L307.7,43.2 Z" fill="#1d4ed8" stroke="none"/><rect x="314.0" y="26.0" width="88.0" height="40.0" rx="6" fill="#dbeafe" stroke="#1d4ed8" stroke-width="1.2"/><text x="358.0" y="50.3" font-size="12" fill="#111827" text-anchor="middle" font-weight="700">超市冷柜</text><line x1="403.0" y1="46.0" x2="408.8" y2="46.0" stroke="#1d4ed8" stroke-width="1.4" stroke-linecap="butt"/><path d="M413.0,46.0 L407.7,48.8 L407.7,43.2 Z" fill="#1d4ed8" stroke="none"/><rect x="414.0" y="26.0" width="88.0" height="40.0" rx="6" fill="#dbeafe" stroke="#1d4ed8" stroke-width="1.2"/><text x="458.0" y="50.3" font-size="12" fill="#111827" text-anchor="middle" font-weight="700">家庭冰箱</text><rect x="60.0" y="84.0" width="400.0" height="22.0" rx="4" fill="#ede9fe" stroke="#7c3aed" stroke-width="1"/><text x="72.0" y="99.5" font-size="11.5" fill="#111827" text-anchor="start" font-weight="700">冷冻食品</text><text x="448.0" y="99.5" font-size="11.5" fill="#7c3aed" text-anchor="end" font-weight="700">≤ −18 ℃</text><rect x="60.0" y="112.0" width="400.0" height="22.0" rx="4" fill="#dbeafe" stroke="#1d4ed8" stroke-width="1"/><text x="72.0" y="127.5" font-size="11.5" fill="#111827" text-anchor="start" font-weight="700">鲜肉 · 乳品</text><text x="448.0" y="127.5" font-size="11.5" fill="#1d4ed8" text-anchor="end" font-weight="700">0 ～ 4 ℃</text><rect x="60.0" y="140.0" width="400.0" height="22.0" rx="4" fill="#ccfbf1" stroke="#0f766e" stroke-width="1"/><text x="72.0" y="155.5" font-size="11.5" fill="#111827" text-anchor="start" font-weight="700">多数疫苗</text><text x="448.0" y="155.5" font-size="11.5" fill="#0f766e" text-anchor="end" font-weight="700">2 ～ 8 ℃</text><rect x="60.0" y="168.0" width="400.0" height="22.0" rx="4" fill="#fee2e2" stroke="#dc2626" stroke-width="1"/><text x="72.0" y="183.5" font-size="11.5" fill="#111827" text-anchor="start" font-weight="700">部分 mRNA 疫苗（早期）</text><text x="448.0" y="183.5" font-size="11.5" fill="#dc2626" text-anchor="end" font-weight="700">约 −70 ℃</text><text x="260.0" y="214.0" font-size="11" fill="#6b7280" text-anchor="middle" font-weight="400">整条链的可靠性取决于最弱的一环：断冷一次，前面的努力可能白费</text></svg>
