<svg xmlns="http://www.w3.org/2000/svg" viewBox="0 0 520 260" font-family="Noto Sans CJK SC, sans-serif"><title>引力弹弓</title><circle cx="200.0" cy="140.0" r="30.0" fill="#fef3c7" stroke="#d97706" stroke-width="2"/><text x="200.0" y="145.0" font-size="12" fill="#d97706" text-anchor="middle" font-weight="700">行星</text><line x1="180.0" y1="188.0" x2="244.4" y2="188.0" stroke="#d97706" stroke-width="2.4" stroke-linecap="butt"/><path d="M250.0,188.0 L242.9,191.8 L242.9,184.2 Z" fill="#d97706" stroke="none"/><text x="256.0" y="192.0" font-size="10.5" fill="#d97706" text-anchor="start" font-weight="700">行星绕日运动</text><path d="M140,226 C150,180 130,120 170,92 C210,62 300,40 380,20" stroke="#1d4ed8" stroke-width="2.2" fill="none" stroke-linejoin="round" stroke-linecap="round"/><line x1="360.0" y1="26.0" x2="378.7" y2="19.8" stroke="#1d4ed8" stroke-width="2.2" stroke-linecap="butt"/><path d="M384.0,18.0 L378.5,23.8 L376.1,16.7 Z" fill="#1d4ed8" stroke="none"/><text x="132.0" y="224.0" font-size="11" fill="#1d4ed8" text-anchor="end" font-weight="700">飞入</text><text x="330.0" y="46.0" font-size="11" fill="#1d4ed8" text-anchor="end" font-weight="700">飞出</text><text x="455.0" y="112.0" font-size="11" fill="#111827" text-anchor="middle" font-weight="700">相对太阳的速度</text><line x1="400.0" y1="170.0" x2="445.8" y2="142.5" stroke="#1d4ed8" stroke-width="1.8" stroke-linecap="butt"/><path d="M450.0,140.0 L446.4,146.0 L443.0,140.4 Z" fill="#1d4ed8" stroke="none"/><text x="420.0" y="142.0" font-size="9.5" fill="#1d4ed8" text-anchor="middle" font-weight="400">v相对</text><line x1="450.0" y1="140.0" x2="495.1" y2="140.0" stroke="#d97706" stroke-width="1.8" stroke-linecap="butt"/><path d="M500.0,140.0 L493.8,143.3 L493.8,136.7 Z" fill="#d97706" stroke="none"/><text x="478.0" y="134.0" font-size="9.5" fill="#d97706" text-anchor="middle" font-weight="400">v行星</text><line x1="400.0" y1="170.0" x2="494.6" y2="141.6" stroke="#dc2626" stroke-width="2.2" stroke-linecap="butt"/><path d="M500.0,140.0 L494.3,145.6 L492.2,138.4 Z" fill="#dc2626" stroke="none"/><text x="450.0" y="174.0" font-size="10.5" fill="#dc2626" text-anchor="middle" font-weight="700">合成后更快</text><text x="260.0" y="252.0" font-size="10.5" fill="#6b7280" text-anchor="middle" font-weight="400">相对行星：飞进多快，飞出也多快；相对太阳：被行星“带”了一程</text></svg>
