<svg xmlns="http://www.w3.org/2000/svg" viewBox="0 0 680 370" font-family="Noto Sans CJK SC, sans-serif"><title>虚拟内存</title><text x="80.0" y="38.0" font-size="12.5" fill="#1d4ed8" text-anchor="middle" font-weight="700">进程 A 看到的内存</text><rect x="30.0" y="46.0" width="100.0" height="26.0" rx="3" fill="#dbeafe" stroke="#1d4ed8" stroke-width="1.2"/><text x="80.0" y="63.1" font-size="11.5" fill="#111827" text-anchor="middle" font-weight="400">虚拟页 0</text><rect x="30.0" y="76.0" width="100.0" height="26.0" rx="3" fill="#dbeafe" stroke="#1d4ed8" stroke-width="1.2"/><text x="80.0" y="93.1" font-size="11.5" fill="#111827" text-anchor="middle" font-weight="400">虚拟页 1</text><rect x="30.0" y="106.0" width="100.0" height="26.0" rx="3" fill="#dbeafe" stroke="#1d4ed8" stroke-width="1.2"/><text x="80.0" y="123.1" font-size="11.5" fill="#111827" text-anchor="middle" font-weight="400">虚拟页 2</text><rect x="30.0" y="136.0" width="100.0" height="26.0" rx="3" fill="#dbeafe" stroke="#1d4ed8" stroke-width="1.2"/><text x="80.0" y="153.1" font-size="11.5" fill="#111827" text-anchor="middle" font-weight="400">虚拟页 3</text><text x="80.0" y="202.0" font-size="12.5" fill="#7c3aed" text-anchor="middle" font-weight="700">进程 B 看到的内存</text><rect x="30.0" y="210.0" width="100.0" height="26.0" rx="3" fill="#ede9fe" stroke="#7c3aed" stroke-width="1.2"/><text x="80.0" y="227.1" font-size="11.5" fill="#111827" text-anchor="middle" font-weight="400">虚拟页 0</text><rect x="30.0" y="240.0" width="100.0" height="26.0" rx="3" fill="#ede9fe" stroke="#7c3aed" stroke-width="1.2"/><text x="80.0" y="257.1" font-size="11.5" fill="#111827" text-anchor="middle" font-weight="400">虚拟页 1</text><rect x="30.0" y="270.0" width="100.0" height="26.0" rx="3" fill="#ede9fe" stroke="#7c3aed" stroke-width="1.2"/><text x="80.0" y="287.1" font-size="11.5" fill="#111827" text-anchor="middle" font-weight="400">虚拟页 2</text><rect x="30.0" y="300.0" width="100.0" height="26.0" rx="3" fill="#ede9fe" stroke="#7c3aed" stroke-width="1.2"/><text x="80.0" y="317.1" font-size="11.5" fill="#111827" text-anchor="middle" font-weight="400">虚拟页 3</text><rect x="170.0" y="40.0" width="100.0" height="130.0" rx="6" fill="#dbeafe" stroke="#1d4ed8" stroke-width="1.2"/><text x="220.0" y="97.6" font-size="12" fill="#111827" text-anchor="middle" font-weight="700">A 的页表</text><text x="220.0" y="110.0" font-size="9.36" fill="#6b7280" text-anchor="middle" font-weight="400">由 MMU</text><text x="220.0" y="121.7" font-size="9.36" fill="#6b7280" text-anchor="middle" font-weight="400">硬件自动查</text><rect x="170.0" y="204.0" width="100.0" height="130.0" rx="6" fill="#ede9fe" stroke="#7c3aed" stroke-width="1.2"/><text x="220.0" y="261.6" font-size="12" fill="#111827" text-anchor="middle" font-weight="700">B 的页表</text><text x="220.0" y="274.0" font-size="9.36" fill="#6b7280" text-anchor="middle" font-weight="400">与 A 的</text><text x="220.0" y="285.7" font-size="9.36" fill="#6b7280" text-anchor="middle" font-weight="400">互不相通</text><text x="460.0" y="26.0" font-size="13" fill="#111827" text-anchor="middle" font-weight="700">物理内存</text><rect x="410.0" y="38.0" width="100.0" height="30.0" rx="3" fill="#fff" stroke="#9ca3af" stroke-width="1.2"/><text x="460.0" y="58.0" font-size="11" fill="#6b7280" text-anchor="middle" font-weight="400">页框 0</text><rect x="410.0" y="74.0" width="100.0" height="30.0" rx="3" fill="#fff" stroke="#9ca3af" stroke-width="1.2"/><text x="460.0" y="94.0" font-size="11" fill="#6b7280" text-anchor="middle" font-weight="400">页框 1</text><rect x="410.0" y="110.0" width="100.0" height="30.0" rx="3" fill="#fff" stroke="#9ca3af" stroke-width="1.2"/><text x="460.0" y="130.0" font-size="11" fill="#6b7280" text-anchor="middle" font-weight="400">页框 2</text><rect x="410.0" y="146.0" width="100.0" height="30.0" rx="3" fill="#fff" stroke="#9ca3af" stroke-width="1.2"/><text x="460.0" y="166.0" font-size="11" fill="#6b7280" text-anchor="middle" font-weight="400">页框 3</text><rect x="410.0" y="182.0" width="100.0" height="30.0" rx="3" fill="#fff" stroke="#9ca3af" stroke-width="1.2"/><text x="460.0" y="202.0" font-size="11" fill="#6b7280" text-anchor="middle" font-weight="400">页框 4</text><rect x="410.0" y="218.0" width="100.0" height="30.0" rx="3" fill="#fff" stroke="#9ca3af" stroke-width="1.2"/><text x="460.0" y="238.0" font-size="11" fill="#6b7280" text-anchor="middle" font-weight="400">页框 5</text><rect x="410.0" y="254.0" width="100.0" height="30.0" rx="3" fill="#fff" stroke="#9ca3af" stroke-width="1.2"/><text x="460.0" y="274.0" font-size="11" fill="#6b7280" text-anchor="middle" font-weight="400">页框 6</text><rect x="410.0" y="290.0" width="100.0" height="30.0" rx="3" fill="#fff" stroke="#9ca3af" stroke-width="1.2"/><text x="460.0" y="310.0" font-size="11" fill="#6b7280" text-anchor="middle" font-weight="400">页框 7</text><rect x="560.0" y="130.0" width="105.0" height="110.0" rx="6" fill="#f1f5f9" stroke="#475569" stroke-width="1.2"/><text x="612.0" y="156.0" font-size="13" fill="#475569" text-anchor="middle" font-weight="700">磁盘</text><text x="612.0" y="176.0" font-size="10.5" fill="#6b7280" text-anchor="middle" font-weight="400">（换出的页）</text><text x="612.0" y="204.0" font-size="10.5" fill="#1d4ed8" text-anchor="middle" font-weight="700">A 的页 3</text><text x="612.0" y="222.0" font-size="10.5" fill="#7c3aed" text-anchor="middle" font-weight="700">B 的页 3</text><line x1="130.0" y1="59.0" x2="170.0" y2="59.0" stroke="#1d4ed8" stroke-width="1" stroke-linecap="round" stroke-dasharray="2 2"/><line x1="270.0" y1="59.0" x2="405.6" y2="122.9" stroke="#1d4ed8" stroke-width="1.3" stroke-linecap="butt"/><path d="M410.0,125.0 L403.0,125.3 L405.8,119.4 Z" fill="#1d4ed8" stroke="none"/><rect x="411.0" y="111.0" width="98.0" height="28.0" rx="3" fill="#dbeafe" stroke="none" stroke-width="1.2"/><text x="460.0" y="129.0" font-size="11" fill="#1d4ed8" text-anchor="middle" font-weight="700">A 的页 0</text><line x1="130.0" y1="89.0" x2="170.0" y2="89.0" stroke="#1d4ed8" stroke-width="1" stroke-linecap="round" stroke-dasharray="2 2"/><line x1="270.0" y1="89.0" x2="406.6" y2="229.5" stroke="#1d4ed8" stroke-width="1.3" stroke-linecap="butt"/><path d="M410.0,233.0 L403.3,230.9 L408.0,226.3 Z" fill="#1d4ed8" stroke="none"/><rect x="411.0" y="219.0" width="98.0" height="28.0" rx="3" fill="#dbeafe" stroke="none" stroke-width="1.2"/><text x="460.0" y="237.0" font-size="11" fill="#1d4ed8" text-anchor="middle" font-weight="700">A 的页 1</text><line x1="130.0" y1="119.0" x2="170.0" y2="119.0" stroke="#1d4ed8" stroke-width="1" stroke-linecap="round" stroke-dasharray="2 2"/><line x1="270.0" y1="119.0" x2="405.6" y2="55.1" stroke="#1d4ed8" stroke-width="1.3" stroke-linecap="butt"/><path d="M410.0,53.0 L405.8,58.6 L403.0,52.7 Z" fill="#1d4ed8" stroke="none"/><rect x="411.0" y="39.0" width="98.0" height="28.0" rx="3" fill="#dbeafe" stroke="none" stroke-width="1.2"/><text x="460.0" y="57.0" font-size="11" fill="#1d4ed8" text-anchor="middle" font-weight="700">A 的页 2</text><line x1="130.0" y1="149.0" x2="170.0" y2="149.0" stroke="#1d4ed8" stroke-width="1" stroke-linecap="round" stroke-dasharray="2 2"/><path d="M270.0,149.0 Q520.0,189.0 560.0,170.0" stroke="#1d4ed8" stroke-width="1.3" fill="none" stroke-linejoin="round" stroke-linecap="round" stroke-dasharray="4 3"/><path d="M560.0,170.0 L555.2,176.4 L552.0,169.6 Z" fill="#1d4ed8" stroke="none"/><line x1="130.0" y1="223.0" x2="170.0" y2="223.0" stroke="#7c3aed" stroke-width="1" stroke-linecap="round" stroke-dasharray="2 2"/><line x1="270.0" y1="223.0" x2="405.2" y2="197.9" stroke="#7c3aed" stroke-width="1.3" stroke-linecap="butt"/><path d="M410.0,197.0 L404.5,201.4 L403.3,194.9 Z" fill="#7c3aed" stroke="none"/><rect x="411.0" y="183.0" width="98.0" height="28.0" rx="3" fill="#ede9fe" stroke="none" stroke-width="1.2"/><text x="460.0" y="201.0" font-size="11" fill="#7c3aed" text-anchor="middle" font-weight="700">B 的页 0</text><line x1="130.0" y1="253.0" x2="170.0" y2="253.0" stroke="#7c3aed" stroke-width="1" stroke-linecap="round" stroke-dasharray="2 2"/><line x1="270.0" y1="253.0" x2="406.8" y2="92.7" stroke="#7c3aed" stroke-width="1.3" stroke-linecap="butt"/><path d="M410.0,89.0 L408.5,95.8 L403.5,91.6 Z" fill="#7c3aed" stroke="none"/><rect x="411.0" y="75.0" width="98.0" height="28.0" rx="3" fill="#ede9fe" stroke="none" stroke-width="1.2"/><text x="460.0" y="93.0" font-size="11" fill="#7c3aed" text-anchor="middle" font-weight="700">B 的页 1</text><line x1="130.0" y1="283.0" x2="170.0" y2="283.0" stroke="#7c3aed" stroke-width="1" stroke-linecap="round" stroke-dasharray="2 2"/><line x1="270.0" y1="283.0" x2="405.2" y2="304.2" stroke="#7c3aed" stroke-width="1.3" stroke-linecap="butt"/><path d="M410.0,305.0 L403.4,307.3 L404.4,300.8 Z" fill="#7c3aed" stroke="none"/><rect x="411.0" y="291.0" width="98.0" height="28.0" rx="3" fill="#ede9fe" stroke="none" stroke-width="1.2"/><text x="460.0" y="309.0" font-size="11" fill="#7c3aed" text-anchor="middle" font-weight="700">B 的页 2</text><line x1="130.0" y1="313.0" x2="170.0" y2="313.0" stroke="#7c3aed" stroke-width="1" stroke-linecap="round" stroke-dasharray="2 2"/><path d="M270.0,313.0 Q520.0,253.0 560.0,210.0" stroke="#7c3aed" stroke-width="1.3" fill="none" stroke-linejoin="round" stroke-linecap="round" stroke-dasharray="4 3"/><path d="M560.0,210.0 L557.9,217.7 L552.4,212.6 Z" fill="#7c3aed" stroke="none"/><text x="340.0" y="362.0" font-size="11" fill="#6b7280" text-anchor="middle" font-weight="400">每个进程都以为自己从地址 0 开始独占内存；实际页面散落各处，甚至暂存在磁盘上</text></svg>
