<svg xmlns="http://www.w3.org/2000/svg" viewBox="0 0 520 320" font-family="Noto Sans CJK SC, sans-serif"><title>高炉：逆流反应器</title><path d="M200.0,30.0 L320.0,30.0 L350.0,150.0 L340.0,250.0 L180.0,250.0 L170.0,150.0 Z" stroke="#475569" stroke-width="3" fill="#fff7ed" stroke-linejoin="round" stroke-linecap="round"/><rect x="205.0" y="50.0" width="110.0" height="12.0" rx="2" fill="#9ca3af" stroke="none" stroke-width="1.2" opacity="0.55"/><rect x="202.0" y="76.0" width="116.0" height="12.0" rx="2" fill="#1f2937" stroke="none" stroke-width="1.2" opacity="0.55"/><rect x="199.0" y="102.0" width="122.0" height="12.0" rx="2" fill="#9ca3af" stroke="none" stroke-width="1.2" opacity="0.55"/><rect x="196.0" y="128.0" width="128.0" height="12.0" rx="2" fill="#1f2937" stroke="none" stroke-width="1.2" opacity="0.55"/><rect x="196.0" y="154.0" width="128.0" height="12.0" rx="2" fill="#9ca3af" stroke="none" stroke-width="1.2" opacity="0.55"/><rect x="196.0" y="180.0" width="128.0" height="12.0" rx="2" fill="#1f2937" stroke="none" stroke-width="1.2" opacity="0.55"/><rect x="196.0" y="206.0" width="128.0" height="12.0" rx="2" fill="#9ca3af" stroke="none" stroke-width="1.2" opacity="0.55"/><rect x="185.0" y="222.0" width="150.0" height="12.0" rx="0" fill="#fde68a" stroke="none" stroke-width="1.2"/><rect x="182.0" y="234.0" width="156.0" height="14.0" rx="0" fill="#f97316" stroke="none" stroke-width="1.2"/><text x="260.0" y="232.0" font-size="10" fill="#111827" text-anchor="middle" font-weight="700">炉渣</text><text x="260.0" y="246.0" font-size="10" fill="#fff" text-anchor="middle" font-weight="700">铁水（约 1500°C）</text><text x="260.0" y="20.0" font-size="11.5" fill="#111827" text-anchor="middle" font-weight="700">炉顶分层装入：铁矿石 · 焦炭 · 石灰石</text><line x1="110.0" y1="70.0" x2="110.0" y2="194.4" stroke="#475569" stroke-width="2.4" stroke-linecap="butt"/><path d="M110.0,200.0 L106.2,192.9 L113.8,192.9 Z" fill="#475569" stroke="none"/><text x="98.0" y="136.0" font-size="12" fill="#475569" text-anchor="end" font-weight="700">炉料下沉</text><line x1="410.0" y1="200.0" x2="410.0" y2="75.6" stroke="#dc2626" stroke-width="2.4" stroke-linecap="butt"/><path d="M410.0,70.0 L413.8,77.1 L406.2,77.1 Z" fill="#dc2626" stroke="none"/><text x="422.0" y="130.0" font-size="12" fill="#dc2626" text-anchor="start" font-weight="700">热气 + CO 上升</text><text x="422.0" y="148.0" font-size="11" fill="#dc2626" text-anchor="start" font-weight="400">把氧“抢”走</text><line x1="130.0" y1="200.0" x2="166.4" y2="200.0" stroke="#d97706" stroke-width="1.8" stroke-linecap="butt"/><path d="M172.0,200.0 L164.9,203.8 L164.9,196.2 Z" fill="#d97706" stroke="none"/><line x1="130.0" y1="215.0" x2="166.4" y2="215.0" stroke="#d97706" stroke-width="1.8" stroke-linecap="butt"/><path d="M172.0,215.0 L164.9,218.8 L164.9,211.2 Z" fill="#d97706" stroke="none"/><text x="120.0" y="222.0" font-size="11" fill="#d97706" text-anchor="end" font-weight="700">热风</text><line x1="338.0" y1="241.0" x2="375.0" y2="259.5" stroke="#f97316" stroke-width="2" stroke-linecap="butt"/><path d="M380.0,262.0 L372.0,262.2 L375.4,255.5 Z" fill="#f97316" stroke="none"/><text x="386.0" y="272.0" font-size="11" fill="#c2410c" text-anchor="start" font-weight="700">出铁口</text><text x="260.0" y="300.0" font-size="13" fill="#111827" text-anchor="middle" font-weight="700">Fe₂O₃ + 3CO → 2Fe + 3CO₂</text></svg>
