<svg xmlns="http://www.w3.org/2000/svg" viewBox="0 0 520 260" font-family="Noto Sans CJK SC, sans-serif"><title>石墨烯的蜂窝晶格</title><path d="M61.2,66.0 L45.6,75.0 L30.0,66.0 L30.0,48.0 L45.6,39.0 L61.2,48.0 Z" stroke="#475569" stroke-width="1.4" fill="none" stroke-linejoin="round" stroke-linecap="round"/><path d="M45.6,93.0 L30.0,102.0 L14.4,93.0 L14.4,75.0 L30.0,66.0 L45.6,75.0 Z" stroke="#475569" stroke-width="1.4" fill="none" stroke-linejoin="round" stroke-linecap="round"/><path d="M61.2,120.0 L45.6,129.0 L30.0,120.0 L30.0,102.0 L45.6,93.0 L61.2,102.0 Z" stroke="#475569" stroke-width="1.4" fill="none" stroke-linejoin="round" stroke-linecap="round"/><path d="M45.6,147.0 L30.0,156.0 L14.4,147.0 L14.4,129.0 L30.0,120.0 L45.6,129.0 Z" stroke="#475569" stroke-width="1.4" fill="none" stroke-linejoin="round" stroke-linecap="round"/><path d="M61.2,174.0 L45.6,183.0 L30.0,174.0 L30.0,156.0 L45.6,147.0 L61.2,156.0 Z" stroke="#475569" stroke-width="1.4" fill="none" stroke-linejoin="round" stroke-linecap="round"/><path d="M45.6,201.0 L30.0,210.0 L14.4,201.0 L14.4,183.0 L30.0,174.0 L45.6,183.0 Z" stroke="#475569" stroke-width="1.4" fill="none" stroke-linejoin="round" stroke-linecap="round"/><path d="M92.4,66.0 L76.8,75.0 L61.2,66.0 L61.2,48.0 L76.8,39.0 L92.4,48.0 Z" stroke="#475569" stroke-width="1.4" fill="none" stroke-linejoin="round" stroke-linecap="round"/><path d="M76.8,93.0 L61.2,102.0 L45.6,93.0 L45.6,75.0 L61.2,66.0 L76.8,75.0 Z" stroke="#475569" stroke-width="1.4" fill="none" stroke-linejoin="round" stroke-linecap="round"/><path d="M92.4,120.0 L76.8,129.0 L61.2,120.0 L61.2,102.0 L76.8,93.0 L92.4,102.0 Z" stroke="#475569" stroke-width="1.4" fill="none" stroke-linejoin="round" stroke-linecap="round"/><path d="M76.8,147.0 L61.2,156.0 L45.6,147.0 L45.6,129.0 L61.2,120.0 L76.8,129.0 Z" stroke="#475569" stroke-width="1.4" fill="none" stroke-linejoin="round" stroke-linecap="round"/><path d="M92.4,174.0 L76.8,183.0 L61.2,174.0 L61.2,156.0 L76.8,147.0 L92.4,156.0 Z" stroke="#475569" stroke-width="1.4" fill="none" stroke-linejoin="round" stroke-linecap="round"/><path d="M76.8,201.0 L61.2,210.0 L45.6,201.0 L45.6,183.0 L61.2,174.0 L76.8,183.0 Z" stroke="#475569" stroke-width="1.4" fill="none" stroke-linejoin="round" stroke-linecap="round"/><path d="M123.5,66.0 L107.9,75.0 L92.4,66.0 L92.4,48.0 L107.9,39.0 L123.5,48.0 Z" stroke="#475569" stroke-width="1.4" fill="none" stroke-linejoin="round" stroke-linecap="round"/><path d="M107.9,93.0 L92.4,102.0 L76.8,93.0 L76.8,75.0 L92.4,66.0 L107.9,75.0 Z" stroke="#475569" stroke-width="1.4" fill="none" stroke-linejoin="round" stroke-linecap="round"/><path d="M123.5,120.0 L107.9,129.0 L92.4,120.0 L92.4,102.0 L107.9,93.0 L123.5,102.0 Z" stroke="#475569" stroke-width="1.4" fill="none" stroke-linejoin="round" stroke-linecap="round"/><path d="M107.9,147.0 L92.4,156.0 L76.8,147.0 L76.8,129.0 L92.4,120.0 L107.9,129.0 Z" stroke="#475569" stroke-width="1.4" fill="none" stroke-linejoin="round" stroke-linecap="round"/><path d="M123.5,174.0 L107.9,183.0 L92.4,174.0 L92.4,156.0 L107.9,147.0 L123.5,156.0 Z" stroke="#475569" stroke-width="1.4" fill="none" stroke-linejoin="round" stroke-linecap="round"/><path d="M107.9,201.0 L92.4,210.0 L76.8,201.0 L76.8,183.0 L92.4,174.0 L107.9,183.0 Z" stroke="#475569" stroke-width="1.4" fill="none" stroke-linejoin="round" stroke-linecap="round"/><path d="M154.7,66.0 L139.1,75.0 L123.5,66.0 L123.5,48.0 L139.1,39.0 L154.7,48.0 Z" stroke="#475569" stroke-width="1.4" fill="none" stroke-linejoin="round" stroke-linecap="round"/><path d="M139.1,93.0 L123.5,102.0 L107.9,93.0 L107.9,75.0 L123.5,66.0 L139.1,75.0 Z" stroke="#475569" stroke-width="1.4" fill="none" stroke-linejoin="round" stroke-linecap="round"/><path d="M154.7,120.0 L139.1,129.0 L123.5,120.0 L123.5,102.0 L139.1,93.0 L154.7,102.0 Z" stroke="#475569" stroke-width="1.4" fill="none" stroke-linejoin="round" stroke-linecap="round"/><path d="M139.1,147.0 L123.5,156.0 L107.9,147.0 L107.9,129.0 L123.5,120.0 L139.1,129.0 Z" stroke="#475569" stroke-width="1.4" fill="none" stroke-linejoin="round" stroke-linecap="round"/><path d="M154.7,174.0 L139.1,183.0 L123.5,174.0 L123.5,156.0 L139.1,147.0 L154.7,156.0 Z" stroke="#475569" stroke-width="1.4" fill="none" stroke-linejoin="round" stroke-linecap="round"/><path d="M139.1,201.0 L123.5,210.0 L107.9,201.0 L107.9,183.0 L123.5,174.0 L139.1,183.0 Z" stroke="#475569" stroke-width="1.4" fill="none" stroke-linejoin="round" stroke-linecap="round"/><path d="M185.9,66.0 L170.3,75.0 L154.7,66.0 L154.7,48.0 L170.3,39.0 L185.9,48.0 Z" stroke="#475569" stroke-width="1.4" fill="none" stroke-linejoin="round" stroke-linecap="round"/><path d="M170.3,93.0 L154.7,102.0 L139.1,93.0 L139.1,75.0 L154.7,66.0 L170.3,75.0 Z" stroke="#475569" stroke-width="1.4" fill="none" stroke-linejoin="round" stroke-linecap="round"/><path d="M185.9,120.0 L170.3,129.0 L154.7,120.0 L154.7,102.0 L170.3,93.0 L185.9,102.0 Z" stroke="#475569" stroke-width="1.4" fill="none" stroke-linejoin="round" stroke-linecap="round"/><path d="M170.3,147.0 L154.7,156.0 L139.1,147.0 L139.1,129.0 L154.7,120.0 L170.3,129.0 Z" stroke="#475569" stroke-width="1.4" fill="none" stroke-linejoin="round" stroke-linecap="round"/><path d="M185.9,174.0 L170.3,183.0 L154.7,174.0 L154.7,156.0 L170.3,147.0 L185.9,156.0 Z" stroke="#475569" stroke-width="1.4" fill="none" stroke-linejoin="round" stroke-linecap="round"/><path d="M170.3,201.0 L154.7,210.0 L139.1,201.0 L139.1,183.0 L154.7,174.0 L170.3,183.0 Z" stroke="#475569" stroke-width="1.4" fill="none" stroke-linejoin="round" stroke-linecap="round"/><path d="M217.1,66.0 L201.5,75.0 L185.9,66.0 L185.9,48.0 L201.5,39.0 L217.1,48.0 Z" stroke="#475569" stroke-width="1.4" fill="none" stroke-linejoin="round" stroke-linecap="round"/><path d="M201.5,93.0 L185.9,102.0 L170.3,93.0 L170.3,75.0 L185.9,66.0 L201.5,75.0 Z" stroke="#475569" stroke-width="1.4" fill="none" stroke-linejoin="round" stroke-linecap="round"/><path d="M217.1,120.0 L201.5,129.0 L185.9,120.0 L185.9,102.0 L201.5,93.0 L217.1,102.0 Z" stroke="#475569" stroke-width="1.4" fill="none" stroke-linejoin="round" stroke-linecap="round"/><path d="M201.5,147.0 L185.9,156.0 L170.3,147.0 L170.3,129.0 L185.9,120.0 L201.5,129.0 Z" stroke="#475569" stroke-width="1.4" fill="none" stroke-linejoin="round" stroke-linecap="round"/><path d="M217.1,174.0 L201.5,183.0 L185.9,174.0 L185.9,156.0 L201.5,147.0 L217.1,156.0 Z" stroke="#475569" stroke-width="1.4" fill="none" stroke-linejoin="round" stroke-linecap="round"/><path d="M201.5,201.0 L185.9,210.0 L170.3,201.0 L170.3,183.0 L185.9,174.0 L201.5,183.0 Z" stroke="#475569" stroke-width="1.4" fill="none" stroke-linejoin="round" stroke-linecap="round"/><path d="M248.2,66.0 L232.6,75.0 L217.1,66.0 L217.1,48.0 L232.6,39.0 L248.2,48.0 Z" stroke="#475569" stroke-width="1.4" fill="none" stroke-linejoin="round" stroke-linecap="round"/><path d="M232.6,93.0 L217.1,102.0 L201.5,93.0 L201.5,75.0 L217.1,66.0 L232.6,75.0 Z" stroke="#475569" stroke-width="1.4" fill="none" stroke-linejoin="round" stroke-linecap="round"/><path d="M248.2,120.0 L232.6,129.0 L217.1,120.0 L217.1,102.0 L232.6,93.0 L248.2,102.0 Z" stroke="#475569" stroke-width="1.4" fill="none" stroke-linejoin="round" stroke-linecap="round"/><path d="M232.6,147.0 L217.1,156.0 L201.5,147.0 L201.5,129.0 L217.1,120.0 L232.6,129.0 Z" stroke="#475569" stroke-width="1.4" fill="none" stroke-linejoin="round" stroke-linecap="round"/><path d="M248.2,174.0 L232.6,183.0 L217.1,174.0 L217.1,156.0 L232.6,147.0 L248.2,156.0 Z" stroke="#475569" stroke-width="1.4" fill="none" stroke-linejoin="round" stroke-linecap="round"/><path d="M232.6,201.0 L217.1,210.0 L201.5,201.0 L201.5,183.0 L217.1,174.0 L232.6,183.0 Z" stroke="#475569" stroke-width="1.4" fill="none" stroke-linejoin="round" stroke-linecap="round"/><path d="M279.4,66.0 L263.8,75.0 L248.2,66.0 L248.2,48.0 L263.8,39.0 L279.4,48.0 Z" stroke="#475569" stroke-width="1.4" fill="none" stroke-linejoin="round" stroke-linecap="round"/><path d="M263.8,93.0 L248.2,102.0 L232.6,93.0 L232.6,75.0 L248.2,66.0 L263.8,75.0 Z" stroke="#475569" stroke-width="1.4" fill="none" stroke-linejoin="round" stroke-linecap="round"/><path d="M279.4,120.0 L263.8,129.0 L248.2,120.0 L248.2,102.0 L263.8,93.0 L279.4,102.0 Z" stroke="#475569" stroke-width="1.4" fill="none" stroke-linejoin="round" stroke-linecap="round"/><path d="M263.8,147.0 L248.2,156.0 L232.6,147.0 L232.6,129.0 L248.2,120.0 L263.8,129.0 Z" stroke="#475569" stroke-width="1.4" fill="none" stroke-linejoin="round" stroke-linecap="round"/><path d="M279.4,174.0 L263.8,183.0 L248.2,174.0 L248.2,156.0 L263.8,147.0 L279.4,156.0 Z" stroke="#475569" stroke-width="1.4" fill="none" stroke-linejoin="round" stroke-linecap="round"/><path d="M263.8,201.0 L248.2,210.0 L232.6,201.0 L232.6,183.0 L248.2,174.0 L263.8,183.0 Z" stroke="#475569" stroke-width="1.4" fill="none" stroke-linejoin="round" stroke-linecap="round"/><path d="M295.0,93.0 L279.4,102.0 L263.8,93.0 L263.8,75.0 L279.4,66.0 L295.0,75.0 Z" stroke="#475569" stroke-width="1.4" fill="none" stroke-linejoin="round" stroke-linecap="round"/><path d="M295.0,147.0 L279.4,156.0 L263.8,147.0 L263.8,129.0 L279.4,120.0 L295.0,129.0 Z" stroke="#475569" stroke-width="1.4" fill="none" stroke-linejoin="round" stroke-linecap="round"/><path d="M295.0,201.0 L279.4,210.0 L263.8,201.0 L263.8,183.0 L279.4,174.0 L295.0,183.0 Z" stroke="#475569" stroke-width="1.4" fill="none" stroke-linejoin="round" stroke-linecap="round"/><circle cx="139.1" cy="201.0" r="3.2" fill="#111827" stroke="#fff" stroke-width="0.5"/><circle cx="30.0" cy="174.0" r="3.2" fill="#111827" stroke="#fff" stroke-width="0.5"/><circle cx="14.4" cy="75.0" r="3.2" fill="#111827" stroke="#fff" stroke-width="0.5"/><circle cx="61.2" cy="102.0" r="3.2" fill="#111827" stroke="#fff" stroke-width="0.5"/><circle cx="295.0" cy="75.0" r="3.2" fill="#111827" stroke="#fff" stroke-width="0.5"/><circle cx="14.4" cy="93.0" r="3.2" fill="#111827" stroke="#fff" stroke-width="0.5"/><circle cx="30.0" cy="210.0" r="3.2" fill="#111827" stroke="#fff" stroke-width="0.5"/><circle cx="61.2" cy="120.0" r="3.2" fill="#111827" stroke="#fff" stroke-width="0.5"/><circle cx="295.0" cy="93.0" r="3.2" fill="#111827" stroke="#fff" stroke-width="0.5"/><circle cx="154.7" cy="174.0" r="3.2" fill="#111827" stroke="#fff" stroke-width="0.5"/><circle cx="139.1" cy="75.0" r="3.2" fill="#111827" stroke="#fff" stroke-width="0.5"/><circle cx="30.0" cy="48.0" r="3.2" fill="#111827" stroke="#fff" stroke-width="0.5"/><circle cx="185.9" cy="156.0" r="3.2" fill="#111827" stroke="#fff" stroke-width="0.5"/><circle cx="139.1" cy="93.0" r="3.2" fill="#111827" stroke="#fff" stroke-width="0.5"/><circle cx="123.5" cy="156.0" r="3.2" fill="#111827" stroke="#fff" stroke-width="0.5"/><circle cx="30.0" cy="66.0" r="3.2" fill="#111827" stroke="#fff" stroke-width="0.5"/><circle cx="185.9" cy="174.0" r="3.2" fill="#111827" stroke="#fff" stroke-width="0.5"/><circle cx="154.7" cy="210.0" r="3.2" fill="#111827" stroke="#fff" stroke-width="0.5"/><circle cx="248.2" cy="102.0" r="3.2" fill="#111827" stroke="#fff" stroke-width="0.5"/><circle cx="123.5" cy="174.0" r="3.2" fill="#111827" stroke="#fff" stroke-width="0.5"/><circle cx="201.5" cy="75.0" r="3.2" fill="#111827" stroke="#fff" stroke-width="0.5"/><circle cx="107.9" cy="93.0" r="3.2" fill="#111827" stroke="#fff" stroke-width="0.5"/><circle cx="76.8" cy="93.0" r="3.2" fill="#111827" stroke="#fff" stroke-width="0.5"/><circle cx="248.2" cy="120.0" r="3.2" fill="#111827" stroke="#fff" stroke-width="0.5"/><circle cx="201.5" cy="93.0" r="3.2" fill="#111827" stroke="#fff" stroke-width="0.5"/><circle cx="154.7" cy="48.0" r="3.2" fill="#111827" stroke="#fff" stroke-width="0.5"/><circle cx="232.6" cy="201.0" r="3.2" fill="#111827" stroke="#fff" stroke-width="0.5"/><circle cx="76.8" cy="129.0" r="3.2" fill="#111827" stroke="#fff" stroke-width="0.5"/><circle cx="154.7" cy="66.0" r="3.2" fill="#111827" stroke="#fff" stroke-width="0.5"/><circle cx="263.8" cy="183.0" r="3.2" fill="#111827" stroke="#fff" stroke-width="0.5"/><circle cx="279.4" cy="156.0" r="3.2" fill="#111827" stroke="#fff" stroke-width="0.5"/><circle cx="185.9" cy="48.0" r="3.2" fill="#111827" stroke="#fff" stroke-width="0.5"/><circle cx="123.5" cy="48.0" r="3.2" fill="#111827" stroke="#fff" stroke-width="0.5"/><circle cx="263.8" cy="201.0" r="3.2" fill="#111827" stroke="#fff" stroke-width="0.5"/><circle cx="279.4" cy="174.0" r="3.2" fill="#111827" stroke="#fff" stroke-width="0.5"/><circle cx="45.6" cy="93.0" r="3.2" fill="#111827" stroke="#fff" stroke-width="0.5"/><circle cx="263.8" cy="39.0" r="3.2" fill="#111827" stroke="#fff" stroke-width="0.5"/><circle cx="232.6" cy="75.0" r="3.2" fill="#111827" stroke="#fff" stroke-width="0.5"/><circle cx="232.6" cy="93.0" r="3.2" fill="#111827" stroke="#fff" stroke-width="0.5"/><circle cx="45.6" cy="129.0" r="3.2" fill="#111827" stroke="#fff" stroke-width="0.5"/><circle cx="170.3" cy="147.0" r="3.2" fill="#111827" stroke="#fff" stroke-width="0.5"/><circle cx="279.4" cy="48.0" r="3.2" fill="#111827" stroke="#fff" stroke-width="0.5"/><circle cx="92.4" cy="156.0" r="3.2" fill="#111827" stroke="#fff" stroke-width="0.5"/><circle cx="217.1" cy="102.0" r="3.2" fill="#111827" stroke="#fff" stroke-width="0.5"/><circle cx="92.4" cy="174.0" r="3.2" fill="#111827" stroke="#fff" stroke-width="0.5"/><circle cx="170.3" cy="183.0" r="3.2" fill="#111827" stroke="#fff" stroke-width="0.5"/><circle cx="217.1" cy="120.0" r="3.2" fill="#111827" stroke="#fff" stroke-width="0.5"/><circle cx="14.4" cy="129.0" r="3.2" fill="#111827" stroke="#fff" stroke-width="0.5"/><circle cx="61.2" cy="156.0" r="3.2" fill="#111827" stroke="#fff" stroke-width="0.5"/><circle cx="170.3" cy="39.0" r="3.2" fill="#111827" stroke="#fff" stroke-width="0.5"/><circle cx="92.4" cy="48.0" r="3.2" fill="#111827" stroke="#fff" stroke-width="0.5"/><circle cx="295.0" cy="129.0" r="3.2" fill="#111827" stroke="#fff" stroke-width="0.5"/><circle cx="61.2" cy="174.0" r="3.2" fill="#111827" stroke="#fff" stroke-width="0.5"/><circle cx="295.0" cy="147.0" r="3.2" fill="#111827" stroke="#fff" stroke-width="0.5"/><circle cx="139.1" cy="129.0" r="3.2" fill="#111827" stroke="#fff" stroke-width="0.5"/><circle cx="30.0" cy="102.0" r="3.2" fill="#111827" stroke="#fff" stroke-width="0.5"/><circle cx="185.9" cy="210.0" r="3.2" fill="#111827" stroke="#fff" stroke-width="0.5"/><circle cx="123.5" cy="210.0" r="3.2" fill="#111827" stroke="#fff" stroke-width="0.5"/><circle cx="30.0" cy="120.0" r="3.2" fill="#111827" stroke="#fff" stroke-width="0.5"/><circle cx="107.9" cy="129.0" r="3.2" fill="#111827" stroke="#fff" stroke-width="0.5"/><circle cx="248.2" cy="156.0" r="3.2" fill="#111827" stroke="#fff" stroke-width="0.5"/><circle cx="201.5" cy="129.0" r="3.2" fill="#111827" stroke="#fff" stroke-width="0.5"/><circle cx="107.9" cy="147.0" r="3.2" fill="#111827" stroke="#fff" stroke-width="0.5"/><circle cx="76.8" cy="147.0" r="3.2" fill="#111827" stroke="#fff" stroke-width="0.5"/><circle cx="61.2" cy="48.0" r="3.2" fill="#111827" stroke="#fff" stroke-width="0.5"/><circle cx="248.2" cy="174.0" r="3.2" fill="#111827" stroke="#fff" stroke-width="0.5"/><circle cx="201.5" cy="147.0" r="3.2" fill="#111827" stroke="#fff" stroke-width="0.5"/><circle cx="185.9" cy="66.0" r="3.2" fill="#111827" stroke="#fff" stroke-width="0.5"/><circle cx="154.7" cy="102.0" r="3.2" fill="#111827" stroke="#fff" stroke-width="0.5"/><circle cx="123.5" cy="66.0" r="3.2" fill="#111827" stroke="#fff" stroke-width="0.5"/><circle cx="154.7" cy="120.0" r="3.2" fill="#111827" stroke="#fff" stroke-width="0.5"/><circle cx="279.4" cy="210.0" r="3.2" fill="#111827" stroke="#fff" stroke-width="0.5"/><circle cx="123.5" cy="102.0" r="3.2" fill="#111827" stroke="#fff" stroke-width="0.5"/><circle cx="263.8" cy="75.0" r="3.2" fill="#111827" stroke="#fff" stroke-width="0.5"/><circle cx="45.6" cy="147.0" r="3.2" fill="#111827" stroke="#fff" stroke-width="0.5"/><circle cx="76.8" cy="39.0" r="3.2" fill="#111827" stroke="#fff" stroke-width="0.5"/><circle cx="263.8" cy="93.0" r="3.2" fill="#111827" stroke="#fff" stroke-width="0.5"/><circle cx="232.6" cy="129.0" r="3.2" fill="#111827" stroke="#fff" stroke-width="0.5"/><circle cx="279.4" cy="66.0" r="3.2" fill="#111827" stroke="#fff" stroke-width="0.5"/><circle cx="232.6" cy="147.0" r="3.2" fill="#111827" stroke="#fff" stroke-width="0.5"/><circle cx="170.3" cy="201.0" r="3.2" fill="#111827" stroke="#fff" stroke-width="0.5"/><circle cx="279.4" cy="102.0" r="3.2" fill="#111827" stroke="#fff" stroke-width="0.5"/><circle cx="92.4" cy="210.0" r="3.2" fill="#111827" stroke="#fff" stroke-width="0.5"/><circle cx="217.1" cy="156.0" r="3.2" fill="#111827" stroke="#fff" stroke-width="0.5"/><circle cx="45.6" cy="39.0" r="3.2" fill="#111827" stroke="#fff" stroke-width="0.5"/><circle cx="217.1" cy="174.0" r="3.2" fill="#111827" stroke="#fff" stroke-width="0.5"/><circle cx="14.4" cy="147.0" r="3.2" fill="#111827" stroke="#fff" stroke-width="0.5"/><circle cx="92.4" cy="66.0" r="3.2" fill="#111827" stroke="#fff" stroke-width="0.5"/><circle cx="170.3" cy="75.0" r="3.2" fill="#111827" stroke="#fff" stroke-width="0.5"/><circle cx="14.4" cy="183.0" r="3.2" fill="#111827" stroke="#fff" stroke-width="0.5"/><circle cx="61.2" cy="210.0" r="3.2" fill="#111827" stroke="#fff" stroke-width="0.5"/><circle cx="139.1" cy="147.0" r="3.2" fill="#111827" stroke="#fff" stroke-width="0.5"/><circle cx="170.3" cy="93.0" r="3.2" fill="#111827" stroke="#fff" stroke-width="0.5"/><circle cx="92.4" cy="102.0" r="3.2" fill="#111827" stroke="#fff" stroke-width="0.5"/><circle cx="295.0" cy="183.0" r="3.2" fill="#111827" stroke="#fff" stroke-width="0.5"/><circle cx="217.1" cy="48.0" r="3.2" fill="#111827" stroke="#fff" stroke-width="0.5"/><circle cx="295.0" cy="201.0" r="3.2" fill="#111827" stroke="#fff" stroke-width="0.5"/><circle cx="139.1" cy="183.0" r="3.2" fill="#111827" stroke="#fff" stroke-width="0.5"/><circle cx="30.0" cy="156.0" r="3.2" fill="#111827" stroke="#fff" stroke-width="0.5"/><circle cx="61.2" cy="66.0" r="3.2" fill="#111827" stroke="#fff" stroke-width="0.5"/><circle cx="107.9" cy="183.0" r="3.2" fill="#111827" stroke="#fff" stroke-width="0.5"/><circle cx="76.8" cy="183.0" r="3.2" fill="#111827" stroke="#fff" stroke-width="0.5"/><circle cx="248.2" cy="210.0" r="3.2" fill="#111827" stroke="#fff" stroke-width="0.5"/><circle cx="201.5" cy="183.0" r="3.2" fill="#111827" stroke="#fff" stroke-width="0.5"/><circle cx="107.9" cy="201.0" r="3.2" fill="#111827" stroke="#fff" stroke-width="0.5"/><circle cx="76.8" cy="201.0" r="3.2" fill="#111827" stroke="#fff" stroke-width="0.5"/><circle cx="139.1" cy="39.0" r="3.2" fill="#111827" stroke="#fff" stroke-width="0.5"/><circle cx="185.9" cy="102.0" r="3.2" fill="#111827" stroke="#fff" stroke-width="0.5"/><circle cx="201.5" cy="201.0" r="3.2" fill="#111827" stroke="#fff" stroke-width="0.5"/><circle cx="185.9" cy="120.0" r="3.2" fill="#111827" stroke="#fff" stroke-width="0.5"/><circle cx="154.7" cy="156.0" r="3.2" fill="#111827" stroke="#fff" stroke-width="0.5"/><circle cx="248.2" cy="48.0" r="3.2" fill="#111827" stroke="#fff" stroke-width="0.5"/><circle cx="123.5" cy="120.0" r="3.2" fill="#111827" stroke="#fff" stroke-width="0.5"/><circle cx="107.9" cy="39.0" r="3.2" fill="#111827" stroke="#fff" stroke-width="0.5"/><circle cx="248.2" cy="66.0" r="3.2" fill="#111827" stroke="#fff" stroke-width="0.5"/><circle cx="201.5" cy="39.0" r="3.2" fill="#111827" stroke="#fff" stroke-width="0.5"/><circle cx="45.6" cy="183.0" r="3.2" fill="#111827" stroke="#fff" stroke-width="0.5"/><circle cx="76.8" cy="75.0" r="3.2" fill="#111827" stroke="#fff" stroke-width="0.5"/><circle cx="107.9" cy="75.0" r="3.2" fill="#111827" stroke="#fff" stroke-width="0.5"/><circle cx="263.8" cy="129.0" r="3.2" fill="#111827" stroke="#fff" stroke-width="0.5"/><circle cx="45.6" cy="201.0" r="3.2" fill="#111827" stroke="#fff" stroke-width="0.5"/><circle cx="263.8" cy="147.0" r="3.2" fill="#111827" stroke="#fff" stroke-width="0.5"/><circle cx="232.6" cy="183.0" r="3.2" fill="#111827" stroke="#fff" stroke-width="0.5"/><circle cx="279.4" cy="120.0" r="3.2" fill="#111827" stroke="#fff" stroke-width="0.5"/><circle cx="232.6" cy="39.0" r="3.2" fill="#111827" stroke="#fff" stroke-width="0.5"/><circle cx="45.6" cy="75.0" r="3.2" fill="#111827" stroke="#fff" stroke-width="0.5"/><circle cx="217.1" cy="210.0" r="3.2" fill="#111827" stroke="#fff" stroke-width="0.5"/><circle cx="14.4" cy="201.0" r="3.2" fill="#111827" stroke="#fff" stroke-width="0.5"/><circle cx="92.4" cy="120.0" r="3.2" fill="#111827" stroke="#fff" stroke-width="0.5"/><circle cx="170.3" cy="129.0" r="3.2" fill="#111827" stroke="#fff" stroke-width="0.5"/><circle cx="217.1" cy="66.0" r="3.2" fill="#111827" stroke="#fff" stroke-width="0.5"/><text x="160.0" y="250.0" font-size="11" fill="#6b7280" text-anchor="middle" font-weight="400">每个碳原子连着 3 个邻居，厚度只有一个原子</text><text x="410.0" y="30.0" font-size="12" fill="#1d4ed8" text-anchor="middle" font-weight="700">卷起来 → 碳纳米管</text><rect x="340.0" y="44.0" width="140.0" height="50.0" rx="25" fill="#dbeafe" stroke="#1d4ed8" stroke-width="1.2"/><path d="M360,46 Q352,69 360,92" stroke="#1d4ed8" stroke-width="0.9" fill="none" stroke-linejoin="round" stroke-linecap="round"/><path d="M380,46 Q372,69 380,92" stroke="#1d4ed8" stroke-width="0.9" fill="none" stroke-linejoin="round" stroke-linecap="round"/><path d="M400,46 Q392,69 400,92" stroke="#1d4ed8" stroke-width="0.9" fill="none" stroke-linejoin="round" stroke-linecap="round"/><path d="M420,46 Q412,69 420,92" stroke="#1d4ed8" stroke-width="0.9" fill="none" stroke-linejoin="round" stroke-linecap="round"/><path d="M440,46 Q432,69 440,92" stroke="#1d4ed8" stroke-width="0.9" fill="none" stroke-linejoin="round" stroke-linecap="round"/><path d="M460,46 Q452,69 460,92" stroke="#1d4ed8" stroke-width="0.9" fill="none" stroke-linejoin="round" stroke-linecap="round"/><text x="410.0" y="132.0" font-size="12" fill="#d97706" text-anchor="middle" font-weight="700">叠起来 → 石墨</text><path d="M345.0,150.0 L470.0,150.0 L490.0,140.0 L365.0,140.0 Z" stroke="#d97706" stroke-width="1" fill="#fef3c7" stroke-linejoin="round" stroke-linecap="round"/><path d="M345.0,168.0 L470.0,168.0 L490.0,158.0 L365.0,158.0 Z" stroke="#d97706" stroke-width="1" fill="#fef3c7" stroke-linejoin="round" stroke-linecap="round"/><path d="M345.0,186.0 L470.0,186.0 L490.0,176.0 L365.0,176.0 Z" stroke="#d97706" stroke-width="1" fill="#fef3c7" stroke-linejoin="round" stroke-linecap="round"/><path d="M345.0,204.0 L470.0,204.0 L490.0,194.0 L365.0,194.0 Z" stroke="#d97706" stroke-width="1" fill="#fef3c7" stroke-linejoin="round" stroke-linecap="round"/><text x="410.0" y="228.0" font-size="10.5" fill="#6b7280" text-anchor="middle" font-weight="400">层间结合很弱，用胶带就能撕下一层</text></svg>
