<svg xmlns="http://www.w3.org/2000/svg" viewBox="0 0 680 330" font-family="Noto Sans CJK SC, sans-serif"><title>哈伯—博施合成氨回路</title><text x="340.0" y="28.0" font-size="15" fill="#111827" text-anchor="middle" font-weight="700">N₂ + 3H₂ ⇌ 2NH₃（放热、体积缩小）</text><rect x="20.0" y="70.0" width="120.0" height="48.0" rx="6" fill="#dbeafe" stroke="#1d4ed8" stroke-width="1.2"/><text x="80.0" y="92.1" font-size="14" fill="#111827" text-anchor="middle" font-weight="700">氮气 N₂</text><text x="80.0" y="106.6" font-size="10.92" fill="#6b7280" text-anchor="middle" font-weight="400">来自空气</text><rect x="20.0" y="150.0" width="120.0" height="48.0" rx="6" fill="#d1fae5" stroke="#059669" stroke-width="1.2"/><text x="80.0" y="172.1" font-size="14" fill="#111827" text-anchor="middle" font-weight="700">氢气 H₂</text><text x="80.0" y="186.6" font-size="10.92" fill="#6b7280" text-anchor="middle" font-weight="400">天然气 · 煤 · 电解水</text><line x1="142.0" y1="94.0" x2="177.6" y2="122.5" stroke="#111827" stroke-width="1.5" stroke-linecap="butt"/><path d="M182.0,126.0 L174.1,124.5 L178.8,118.7 Z" fill="#111827" stroke="none"/><line x1="142.0" y1="174.0" x2="177.6" y2="145.5" stroke="#111827" stroke-width="1.5" stroke-linecap="butt"/><path d="M182.0,142.0 L178.8,149.3 L174.1,143.5 Z" fill="#111827" stroke="none"/><rect x="184.0" y="108.0" width="110.0" height="52.0" rx="6" fill="#f1f5f9" stroke="#475569" stroke-width="1.2"/><text x="239.0" y="132.1" font-size="14" fill="#111827" text-anchor="middle" font-weight="700">压缩机</text><text x="239.0" y="146.6" font-size="10.92" fill="#6b7280" text-anchor="middle" font-weight="400">150—300 个大气压</text><line x1="296.0" y1="134.0" x2="324.4" y2="134.0" stroke="#111827" stroke-width="2" stroke-linecap="butt"/><path d="M330.0,134.0 L322.9,137.8 L322.9,130.2 Z" fill="#111827" stroke="none"/><rect x="332.0" y="66.0" width="120.0" height="136.0" rx="10" fill="#fef3c7" stroke="#d97706" stroke-width="1.8"/><text x="392.0" y="92.0" font-size="14.5" fill="#d97706" text-anchor="middle" font-weight="700">反应塔</text><circle cx="352.0" cy="112.0" r="5.0" fill="#9ca3af" stroke="#4b5563" stroke-width="0.8"/><circle cx="372.0" cy="112.0" r="5.0" fill="#9ca3af" stroke="#4b5563" stroke-width="0.8"/><circle cx="392.0" cy="112.0" r="5.0" fill="#9ca3af" stroke="#4b5563" stroke-width="0.8"/><circle cx="412.0" cy="112.0" r="5.0" fill="#9ca3af" stroke="#4b5563" stroke-width="0.8"/><circle cx="432.0" cy="112.0" r="5.0" fill="#9ca3af" stroke="#4b5563" stroke-width="0.8"/><circle cx="352.0" cy="130.0" r="5.0" fill="#9ca3af" stroke="#4b5563" stroke-width="0.8"/><circle cx="372.0" cy="130.0" r="5.0" fill="#9ca3af" stroke="#4b5563" stroke-width="0.8"/><circle cx="392.0" cy="130.0" r="5.0" fill="#9ca3af" stroke="#4b5563" stroke-width="0.8"/><circle cx="412.0" cy="130.0" r="5.0" fill="#9ca3af" stroke="#4b5563" stroke-width="0.8"/><circle cx="432.0" cy="130.0" r="5.0" fill="#9ca3af" stroke="#4b5563" stroke-width="0.8"/><circle cx="352.0" cy="148.0" r="5.0" fill="#9ca3af" stroke="#4b5563" stroke-width="0.8"/><circle cx="372.0" cy="148.0" r="5.0" fill="#9ca3af" stroke="#4b5563" stroke-width="0.8"/><circle cx="392.0" cy="148.0" r="5.0" fill="#9ca3af" stroke="#4b5563" stroke-width="0.8"/><circle cx="412.0" cy="148.0" r="5.0" fill="#9ca3af" stroke="#4b5563" stroke-width="0.8"/><circle cx="432.0" cy="148.0" r="5.0" fill="#9ca3af" stroke="#4b5563" stroke-width="0.8"/><circle cx="352.0" cy="166.0" r="5.0" fill="#9ca3af" stroke="#4b5563" stroke-width="0.8"/><circle cx="372.0" cy="166.0" r="5.0" fill="#9ca3af" stroke="#4b5563" stroke-width="0.8"/><circle cx="392.0" cy="166.0" r="5.0" fill="#9ca3af" stroke="#4b5563" stroke-width="0.8"/><circle cx="412.0" cy="166.0" r="5.0" fill="#9ca3af" stroke="#4b5563" stroke-width="0.8"/><circle cx="432.0" cy="166.0" r="5.0" fill="#9ca3af" stroke="#4b5563" stroke-width="0.8"/><text x="392.0" y="192.0" font-size="10.5" fill="#d97706" text-anchor="middle" font-weight="700">铁催化剂 · 400—500°C</text><line x1="454.0" y1="134.0" x2="484.4" y2="134.0" stroke="#111827" stroke-width="2" stroke-linecap="butt"/><path d="M490.0,134.0 L482.9,137.8 L482.9,130.2 Z" fill="#111827" stroke="none"/><rect x="492.0" y="104.0" width="110.0" height="60.0" rx="6" fill="#ccfbf1" stroke="#0f766e" stroke-width="1.2"/><text x="547.0" y="125.3" font-size="14" fill="#111827" text-anchor="middle" font-weight="700">冷凝器</text><text x="547.0" y="139.8" font-size="10.92" fill="#6b7280" text-anchor="middle" font-weight="400">氨先变成液体</text><text x="547.0" y="153.5" font-size="10.92" fill="#6b7280" text-anchor="middle" font-weight="400">被分离出来</text><line x1="547.0" y1="166.0" x2="547.0" y2="208.4" stroke="#0f766e" stroke-width="2" stroke-linecap="butt"/><path d="M547.0,214.0 L543.2,206.9 L550.8,206.9 Z" fill="#0f766e" stroke="none"/><rect x="492.0" y="216.0" width="110.0" height="40.0" rx="6" fill="#0f766e" stroke="#0f766e" stroke-width="1.2"/><text x="547.0" y="241.0" font-size="14" fill="#fff" text-anchor="middle" font-weight="700">液氨 NH₃</text><text x="620.0" y="240.0" font-size="12" fill="#0f766e" text-anchor="start" font-weight="700">→ 化肥</text><path d="M602,120 C660,120 660,40 560,40 L300,40 C250,40 240,70 240,106" stroke="#dc2626" stroke-width="2" fill="none" stroke-linejoin="round" stroke-linecap="round" stroke-dasharray="6 4"/><path d="M240.0,106.0 L236.2,98.9 L243.8,98.9 Z" fill="#dc2626" stroke="none"/><text x="450.0" y="56.0" font-size="12" fill="#dc2626" text-anchor="middle" font-weight="700">未反应的 N₂、H₂ 循环回去再用</text><text x="240.0" y="286.0" font-size="11.5" fill="#111827" text-anchor="middle" font-weight="400">高压：推动平衡向生成氨的一边</text><text x="240.0" y="300.9" font-size="11.5" fill="#111827" text-anchor="middle" font-weight="400">高温 + 催化剂：让反应足够快</text><text x="240.0" y="318.0" font-size="11" fill="#6b7280" text-anchor="middle" font-weight="400">每次通过只转化一小部分，靠循环把原料几乎用尽</text></svg>
