<svg xmlns="http://www.w3.org/2000/svg" viewBox="0 0 680 300" font-family="Noto Sans CJK SC, sans-serif"><title>锂离子电池</title><text x="160.0" y="30.0" font-size="13" fill="#475569" text-anchor="middle" font-weight="700">负极：石墨（层状）</text><line x1="60.0" y1="60.0" x2="260.0" y2="60.0" stroke="#475569" stroke-width="3" stroke-linecap="round"/><line x1="60.0" y1="90.0" x2="260.0" y2="90.0" stroke="#475569" stroke-width="3" stroke-linecap="round"/><line x1="60.0" y1="120.0" x2="260.0" y2="120.0" stroke="#475569" stroke-width="3" stroke-linecap="round"/><line x1="60.0" y1="150.0" x2="260.0" y2="150.0" stroke="#475569" stroke-width="3" stroke-linecap="round"/><line x1="60.0" y1="180.0" x2="260.0" y2="180.0" stroke="#475569" stroke-width="3" stroke-linecap="round"/><line x1="60.0" y1="210.0" x2="260.0" y2="210.0" stroke="#475569" stroke-width="3" stroke-linecap="round"/><text x="510.0" y="30.0" font-size="13" fill="#dc2626" text-anchor="middle" font-weight="700">正极：金属氧化物（如磷酸铁锂）</text><rect x="420.0" y="52.0" width="18.0" height="18.0" rx="2" fill="#fee2e2" stroke="#dc2626" stroke-width="1"/><rect x="450.0" y="52.0" width="18.0" height="18.0" rx="2" fill="#fee2e2" stroke="#dc2626" stroke-width="1"/><rect x="480.0" y="52.0" width="18.0" height="18.0" rx="2" fill="#fee2e2" stroke="#dc2626" stroke-width="1"/><rect x="510.0" y="52.0" width="18.0" height="18.0" rx="2" fill="#fee2e2" stroke="#dc2626" stroke-width="1"/><rect x="540.0" y="52.0" width="18.0" height="18.0" rx="2" fill="#fee2e2" stroke="#dc2626" stroke-width="1"/><rect x="570.0" y="52.0" width="18.0" height="18.0" rx="2" fill="#fee2e2" stroke="#dc2626" stroke-width="1"/><rect x="420.0" y="82.0" width="18.0" height="18.0" rx="2" fill="#fee2e2" stroke="#dc2626" stroke-width="1"/><rect x="450.0" y="82.0" width="18.0" height="18.0" rx="2" fill="#fee2e2" stroke="#dc2626" stroke-width="1"/><rect x="480.0" y="82.0" width="18.0" height="18.0" rx="2" fill="#fee2e2" stroke="#dc2626" stroke-width="1"/><rect x="510.0" y="82.0" width="18.0" height="18.0" rx="2" fill="#fee2e2" stroke="#dc2626" stroke-width="1"/><rect x="540.0" y="82.0" width="18.0" height="18.0" rx="2" fill="#fee2e2" stroke="#dc2626" stroke-width="1"/><rect x="570.0" y="82.0" width="18.0" height="18.0" rx="2" fill="#fee2e2" stroke="#dc2626" stroke-width="1"/><rect x="420.0" y="112.0" width="18.0" height="18.0" rx="2" fill="#fee2e2" stroke="#dc2626" stroke-width="1"/><rect x="450.0" y="112.0" width="18.0" height="18.0" rx="2" fill="#fee2e2" stroke="#dc2626" stroke-width="1"/><rect x="480.0" y="112.0" width="18.0" height="18.0" rx="2" fill="#fee2e2" stroke="#dc2626" stroke-width="1"/><rect x="510.0" y="112.0" width="18.0" height="18.0" rx="2" fill="#fee2e2" stroke="#dc2626" stroke-width="1"/><rect x="540.0" y="112.0" width="18.0" height="18.0" rx="2" fill="#fee2e2" stroke="#dc2626" stroke-width="1"/><rect x="570.0" y="112.0" width="18.0" height="18.0" rx="2" fill="#fee2e2" stroke="#dc2626" stroke-width="1"/><rect x="420.0" y="142.0" width="18.0" height="18.0" rx="2" fill="#fee2e2" stroke="#dc2626" stroke-width="1"/><rect x="450.0" y="142.0" width="18.0" height="18.0" rx="2" fill="#fee2e2" stroke="#dc2626" stroke-width="1"/><rect x="480.0" y="142.0" width="18.0" height="18.0" rx="2" fill="#fee2e2" stroke="#dc2626" stroke-width="1"/><rect x="510.0" y="142.0" width="18.0" height="18.0" rx="2" fill="#fee2e2" stroke="#dc2626" stroke-width="1"/><rect x="540.0" y="142.0" width="18.0" height="18.0" rx="2" fill="#fee2e2" stroke="#dc2626" stroke-width="1"/><rect x="570.0" y="142.0" width="18.0" height="18.0" rx="2" fill="#fee2e2" stroke="#dc2626" stroke-width="1"/><rect x="420.0" y="172.0" width="18.0" height="18.0" rx="2" fill="#fee2e2" stroke="#dc2626" stroke-width="1"/><rect x="450.0" y="172.0" width="18.0" height="18.0" rx="2" fill="#fee2e2" stroke="#dc2626" stroke-width="1"/><rect x="480.0" y="172.0" width="18.0" height="18.0" rx="2" fill="#fee2e2" stroke="#dc2626" stroke-width="1"/><rect x="510.0" y="172.0" width="18.0" height="18.0" rx="2" fill="#fee2e2" stroke="#dc2626" stroke-width="1"/><rect x="540.0" y="172.0" width="18.0" height="18.0" rx="2" fill="#fee2e2" stroke="#dc2626" stroke-width="1"/><rect x="570.0" y="172.0" width="18.0" height="18.0" rx="2" fill="#fee2e2" stroke="#dc2626" stroke-width="1"/><rect x="420.0" y="202.0" width="18.0" height="18.0" rx="2" fill="#fee2e2" stroke="#dc2626" stroke-width="1"/><rect x="450.0" y="202.0" width="18.0" height="18.0" rx="2" fill="#fee2e2" stroke="#dc2626" stroke-width="1"/><rect x="480.0" y="202.0" width="18.0" height="18.0" rx="2" fill="#fee2e2" stroke="#dc2626" stroke-width="1"/><rect x="510.0" y="202.0" width="18.0" height="18.0" rx="2" fill="#fee2e2" stroke="#dc2626" stroke-width="1"/><rect x="540.0" y="202.0" width="18.0" height="18.0" rx="2" fill="#fee2e2" stroke="#dc2626" stroke-width="1"/><rect x="570.0" y="202.0" width="18.0" height="18.0" rx="2" fill="#fee2e2" stroke="#dc2626" stroke-width="1"/><line x1="340.0" y1="50.0" x2="340.0" y2="230.0" stroke="#6b7280" stroke-width="1.6" stroke-linecap="round" stroke-dasharray="5 4"/><text x="340.0" y="246.0" font-size="10.5" fill="#6b7280" text-anchor="middle" font-weight="400">隔膜（只让锂离子通过）</text><circle cx="100.0" cy="75.0" r="7.0" fill="#d97706" stroke="#fff" stroke-width="1"/><circle cx="180.0" cy="105.0" r="7.0" fill="#d97706" stroke="#fff" stroke-width="1"/><circle cx="130.0" cy="165.0" r="7.0" fill="#d97706" stroke="#fff" stroke-width="1"/><circle cx="220.0" cy="195.0" r="7.0" fill="#d97706" stroke="#fff" stroke-width="1"/><circle cx="445.0" cy="120.0" r="7.0" fill="#d97706" stroke="#fff" stroke-width="1"/><circle cx="505.0" cy="180.0" r="7.0" fill="#d97706" stroke="#fff" stroke-width="1"/><line x1="270.0" y1="110.0" x2="404.4" y2="110.0" stroke="#059669" stroke-width="2.4" stroke-linecap="butt"/><path d="M410.0,110.0 L402.9,113.8 L402.9,106.2 Z" fill="#059669" stroke="none"/><text x="340.0" y="102.0" font-size="11" fill="#059669" text-anchor="middle" font-weight="400">放电：Li⁺ → 正极</text><line x1="410.0" y1="160.0" x2="275.6" y2="160.0" stroke="#7c3aed" stroke-width="2.4" stroke-linecap="butt"/><path d="M270.0,160.0 L277.1,156.2 L277.1,163.8 Z" fill="#7c3aed" stroke="none"/><text x="340.0" y="180.0" font-size="11" fill="#7c3aed" text-anchor="middle" font-weight="400">充电：Li⁺ → 负极</text><circle cx="560.0" cy="270.0" r="7.0" fill="#d97706" stroke="#fff" stroke-width="1.2"/><text x="572.0" y="274.0" font-size="10.5" fill="#111827" text-anchor="start" font-weight="400">锂离子 Li⁺</text><text x="240.0" y="278.0" font-size="11.5" fill="#111827" text-anchor="middle" font-weight="400">锂离子像坐摇椅一样在两极之间来回“摇”，电子则走外电路</text></svg>
